<svg width="92" height="101" viewBox="0 0 92 101" fill="none" xmlns="http://www.w3.org/2000/svg">
<g clip-path="url(#clip0_1413_4186)">
<path d="M8.50781 35.6014C8.50781 22.7576 18.9197 12.3458 31.7634 12.3458H35.5286C51.4304 12.3458 64.3211 25.2367 64.3211 41.1384C64.3211 50.9244 56.3886 58.8569 46.6027 58.8569H31.7634C18.9197 58.8569 8.50781 48.4453 8.50781 35.6014Z" fill="#C4C4C4"/>
<path fill-rule="evenodd" clip-rule="evenodd" d="M9.5725 28.6248C8.88073 30.8272 8.50781 33.1708 8.50781 35.6014C8.50781 48.4453 18.9197 58.8569 31.7634 58.8569H36.4146V47.229C36.4146 36.9543 28.0851 28.6248 17.8101 28.6248H9.5725Z" fill="#757575"/>
<path d="M36.4147 30.9503C37.699 30.9503 38.7402 29.9091 38.7402 28.6247C38.7402 27.3404 37.699 26.2992 36.4147 26.2992C35.1303 26.2992 34.0891 27.3404 34.0891 28.6247C34.0891 29.9091 35.1303 30.9503 36.4147 30.9503Z" fill="#757575"/>
<path d="M63.8992 1.18168C55.1621 6.02469 52.0055 17.0335 56.8486 25.7706L57.55 27.0362L64.3843 23.2479C70.0457 20.1096 72.0913 12.976 68.9532 7.31431L65.8667 1.74574C65.4792 1.04676 64.5983 0.794273 63.8992 1.18168Z" fill="#C4C4C4"/>
<path d="M82.8403 35.3525C74.1033 40.1956 63.0945 37.0388 58.2518 28.3018L57.5499 27.0362L64.3843 23.2479C70.0456 20.1097 77.1794 22.1553 80.3185 27.8168L83.4049 33.3854C83.7923 34.0844 83.5393 34.9651 82.8403 35.3525Z" fill="#C4C4C4"/>
<path fill-rule="evenodd" clip-rule="evenodd" d="M4.58229 100.434H5.52498V99.4917V90.3344L5.74351 89.983L10.7932 99.9189L11.0553 100.434H11.6336H14.5371H16.0772L15.3766 99.063L8.49422 85.5894L14.8814 75.4854L15.7958 74.0386H14.0846H11.1434H10.6234L10.346 74.4786L5.52498 82.1261V74.9816V74.0386H4.58229H1.94269H1V74.9816V99.4917V100.434H1.94269H4.58229ZM4.58229 90.0649L5.24443 89.001L5.82659 88.0663L6.32572 89.0483L11.6336 99.4917H13.4786H14.5371L14.0555 98.5487L7.41037 85.5399L13.4887 75.9246L14.0846 74.9816H12.9693H11.1434L5.52498 83.8934L4.58229 85.389V83.6216V75.9246V74.9816H3.63959H2.88539H1.94269V75.9246V98.5487V99.4917H2.88539H3.63959H4.58229V98.5487V90.0649ZM18.6879 74.0386H17.7452V74.9816V94.7783C17.7452 96.695 18.2507 98.3032 19.4235 99.4204C20.5877 100.529 22.2491 101 24.231 101C25.4319 101 26.5468 100.69 27.5544 100.068L27.5607 100.064C28.0718 99.7425 28.5347 99.3686 28.9488 98.9436L29.3154 99.8461L29.5543 100.434H30.1887H31.32H32.2627V99.4917V74.9816V74.0386H31.32H28.6805H27.7377V74.9816V94.0237C27.7377 94.4464 27.4922 95.0426 26.6474 95.8189C25.8648 96.5381 25.0671 96.852 24.231 96.852C23.2487 96.852 22.8377 96.6162 22.6714 96.4195C22.4432 96.1124 22.2701 95.6034 22.2701 94.7783V74.9816V74.0386H21.3275H18.6879ZM29.2084 97.0787C29.0117 97.4 28.7942 97.6996 28.5561 97.9774C28.1249 98.4797 27.6259 98.9091 27.059 99.2657C26.2044 99.7935 25.2617 100.057 24.231 100.057C20.5356 100.057 18.6879 98.2972 18.6879 94.7783V75.9246V74.9816H19.6306H20.3848H21.3275V75.9246V94.7783C21.3275 95.7333 21.5285 96.4751 21.9308 97.0029C22.3582 97.5307 23.1248 97.7949 24.231 97.7949C25.337 97.7949 26.3551 97.3677 27.2852 96.5126C28.2155 95.6582 28.6805 94.8286 28.6805 94.0237V75.9246V74.9816H29.6232H30.3773H31.32V75.9246V98.5487V99.4917H30.3773H30.1887L29.6362 98.132L29.2084 97.0787ZM43.4012 74.0386H42.4585V74.9816V95.3061C42.4585 95.9901 42.2881 96.3302 42.1124 96.5058C41.9368 96.6815 41.5968 96.852 40.9125 96.852C40.2609 96.852 39.9436 96.686 39.7793 96.5164C39.6097 96.3414 39.4419 95.9976 39.4419 95.3061V92.7039V91.7616H38.4992H35.8597H34.917V92.7039V95.1552C34.917 96.9345 35.4075 98.4376 36.5327 99.4985C37.6389 100.542 39.1446 101 40.9125 101C42.6821 101 44.1931 100.541 45.3202 99.5075C46.4758 98.4489 46.9834 96.942 46.9834 95.1552V74.9816V74.0386H46.0407H43.4012ZM55.8404 100.434H56.783V99.4917V74.9816V74.0386H55.8404H53.2008H52.2581V74.9816V99.4917V100.434H53.2008H55.8404ZM66.0038 100.434H66.9465V99.4917V82.259C66.9465 80.5502 67.2696 79.3947 67.7858 78.6634C68.3909 77.8451 68.9075 77.6214 69.3221 77.6214C69.8183 77.6214 70.0348 77.7617 70.1533 77.9044C70.2994 78.0793 70.4533 78.445 70.4533 79.1672V81.7687V82.7117H71.396H73.9224H74.8651V81.7687V79.3181C74.8651 77.5583 74.4642 76.0627 73.496 75.0049C72.5133 73.9312 71.0987 73.4733 69.4352 73.4733C68.336 73.4733 67.3532 73.8299 66.5341 74.5446C66.2272 74.8127 65.9504 75.1242 65.7013 75.4749L65.3731 74.6377L65.1385 74.0386H64.4955H63.3643H62.4216V74.9816V99.4917V100.434H63.3643H66.0038ZM69.3221 76.6784C68.4925 76.6784 67.7257 77.1559 67.0219 78.1116C66.3432 79.0666 66.0038 80.4496 66.0038 82.259V98.5487V99.4917H65.0611H64.307H63.3643V98.5487V75.9246V74.9816H64.307H64.4955L65.095 76.5109L65.589 77.7723C65.7497 77.3248 65.9295 76.9224 66.1284 76.565C66.9248 75.1325 68.0271 74.4162 69.4352 74.4162C72.4266 74.4162 73.9224 76.05 73.9224 79.3181V80.8265V81.7687H72.9797H72.3387H71.396V80.8265V79.1672C71.396 77.508 70.7047 76.6784 69.3221 76.6784ZM90.1515 100.434H91.0945V99.4917V79.695C91.0945 77.8113 90.5104 76.2339 89.2363 75.1107C87.9908 73.9643 86.2144 73.4733 84.0807 73.4733C81.9417 73.4733 80.1616 73.9665 78.9153 75.119C77.6937 76.2467 77.1419 77.8218 77.1419 79.695V81.7687V82.7117H78.0849H80.7247H81.6669V81.7687V79.5441C81.6669 78.7768 81.8846 78.3601 82.1759 78.1116C82.495 77.8391 83.0739 77.6214 84.0807 77.6214C85.0897 77.6214 85.6851 77.8473 86.026 78.1439C86.3608 78.4352 86.5695 78.8579 86.5695 79.5441V84.7853H83.1377C81.1894 84.7853 79.5535 85.2591 78.4085 86.3725C77.2583 87.4904 76.765 89.0956 76.765 91.0071V94.7783C76.765 96.6898 77.2583 98.2957 78.4085 99.4136C79.5535 100.526 81.1894 101 83.1377 101C84.339 101 85.4539 100.69 86.4614 100.068L86.4697 100.062L86.4779 100.057C86.9622 99.744 87.3999 99.3814 87.7918 98.9714L88.1469 99.8461L88.3857 100.434H89.0201H90.1515ZM84.0807 74.4162C86.0913 74.4162 87.5996 74.881 88.6057 75.8112C89.6365 76.7159 90.1515 78.011 90.1515 79.695V98.5487V99.4917H89.2085H89.0201L88.4728 98.1448L88.0396 97.0787C87.8474 97.4083 87.6326 97.7154 87.3961 97.9992C86.9855 98.4924 86.5087 98.9144 85.9659 99.2657C85.1115 99.7935 84.1685 100.057 83.1377 100.057C79.5182 100.057 77.708 98.2972 77.708 94.7783V91.0071C77.708 87.4882 79.5182 85.7283 83.1377 85.7283H86.5695H87.5118V84.7853V79.5441C87.5118 78.6394 87.2227 77.9352 86.6446 77.4329C86.0665 76.9299 85.2121 76.6784 84.0807 76.6784C81.8433 76.6784 80.7247 77.6334 80.7247 79.5441V80.8265V81.7687H79.7817H79.0279H78.0849V80.8265V79.695C78.0849 78.011 78.5752 76.7159 79.5557 75.8112C80.561 74.881 82.0693 74.4162 84.0807 74.4162ZM83.1377 88.9334H86.5695V94.1041C86.532 94.5598 86.2452 95.1552 85.4471 95.8879C84.6896 96.5599 83.9275 96.852 83.1377 96.852C82.2007 96.852 81.8403 96.6147 81.7007 96.4315C81.4679 96.1259 81.29 95.6147 81.29 94.7783V91.0071C81.29 90.1707 81.4679 89.6594 81.7007 89.3539C81.8403 89.1707 82.2007 88.9334 83.1377 88.9334ZM83.1377 87.9904H86.5695H87.5118V88.9334V94.1371C87.4615 94.9412 86.984 95.7588 86.0793 96.5884C85.1738 97.3925 84.1933 97.7949 83.1377 97.7949C82.0821 97.7949 81.3531 97.5307 80.9507 97.0029C80.5482 96.4751 80.3478 95.7333 80.3478 94.7783V91.0071C80.3478 90.0521 80.5482 89.3103 80.9507 88.7825C81.3531 88.2547 82.0821 87.9904 83.1377 87.9904ZM43.4012 74.9816H44.3439H45.0981H46.0407V75.9246V95.1552C46.0407 96.7641 45.5882 97.9834 44.6833 98.813C43.7783 99.6426 42.5214 100.057 40.9125 100.057C39.3036 100.057 38.0593 99.6426 37.1794 98.813C36.2996 97.9834 35.8597 96.7641 35.8597 95.1552V93.6468V92.7039H36.8023H37.5565H38.4992V93.6468V95.3061C38.4992 96.9653 39.3036 97.7949 40.9125 97.7949C42.5716 97.7949 43.4012 96.9653 43.4012 95.3061V75.9246V74.9816ZM55.8404 99.4917H54.8976H54.1435H53.2008V98.5487V75.9246V74.9816H54.1435H54.8976H55.8404V75.9246V98.5487V99.4917Z" fill="#757575"/>
</g>
<defs>
<clipPath id="clip0_1413_4186">
<rect width="90.09" height="100" fill="white" transform="translate(0.954956 0.553223)"/>
</clipPath>
</defs>
</svg>
