<svg width="100" height="100" viewBox="0 0 100 100" fill="none"
	xmlns="http://www.w3.org/2000/svg">
	<g clip-path="url(#clip0_624_4)">
		<path d="M50 100C22.3858 100 0 77.6142 0 50C0 22.3858 22.3858 0 50 0C77.6142 0 100 22.3858 100 50C99.9697 77.6017 77.6017 99.9697 50 100ZM49.92 90H50C72.0836 89.9779 89.971 72.0636 89.96 49.98C89.949 27.8964 72.0436 10 49.96 10C27.8764 10 9.97105 27.8964 9.96 49.98C9.94896 72.0636 27.8364 89.9779 49.92 90ZM40 75L20 55L27.05 47.95L40 60.85L72.95 27.9L80 35L40 75Z" fill="#595F98"/>
	</g>
	<defs>
		<clipPath id="clip0_624_4">
			<rect width="100" height="100" fill="white"/>
		</clipPath>
	</defs>
</svg>
