<svg width="406" height="101" viewBox="0 0 406 101" fill="none" xmlns="http://www.w3.org/2000/svg">
<g clip-path="url(#clip0_1413_4092)">
<path d="M0.359985 60.8052C0.359985 38.606 18.3559 20.6102 40.5551 20.6102H47.0628C74.5473 20.6102 96.8276 42.8909 96.8276 70.3754C96.8276 87.2894 83.1172 101 66.2033 101H40.5551C18.3559 101 0.359985 83.0046 0.359985 60.8052Z" fill="#545454"/>
<path fill-rule="evenodd" clip-rule="evenodd" d="M2.20012 48.7467C1.00453 52.5534 0.359985 56.604 0.359985 60.8052C0.359985 83.0046 18.3559 101 40.5551 101H48.5941V80.9024C48.5941 63.1434 34.1973 48.7467 16.438 48.7467H2.20012Z" fill="#A3A3A3"/>
<path d="M48.5941 52.7662C50.814 52.7662 52.6136 50.9666 52.6136 48.7467C52.6136 46.5268 50.814 44.7272 48.5941 44.7272C46.3742 44.7272 44.5746 46.5268 44.5746 48.7467C44.5746 50.9666 46.3742 52.7662 48.5941 52.7662Z" fill="#A3A3A3"/>
<path d="M96.0986 1.31401C80.9972 9.68468 75.5415 28.7124 83.9123 43.8136L85.1246 46.001L96.937 39.4533C106.722 34.0291 110.258 21.6993 104.834 11.9137L99.4991 2.28894C98.8294 1.08082 97.3068 0.644421 96.0986 1.31401Z" fill="#545454"/>
<path d="M128.836 60.3752C113.735 68.7459 94.7077 63.2897 86.3376 48.1886L85.1245 46.0012L96.937 39.4536C106.722 34.0294 119.052 37.565 124.477 47.3504L129.812 56.9752C130.481 58.1833 130.045 59.7055 128.836 60.3752Z" fill="#545454"/>
<path d="M161.021 85.6622H153.555V16.3352H161.021V45.7726L179.579 16.3352H187.898L169.02 46.1991L189.178 85.6622H180.965L164.541 53.3452L161.021 58.998V85.6622ZM200.919 72.33V16.3352H208.384V72.33C208.384 75.032 208.954 77.1297 210.091 78.6228C211.3 80.116 213.469 80.8627 216.597 80.8627C219.726 80.8627 222.605 79.6539 225.236 77.2363C227.867 74.8187 229.182 72.4721 229.182 70.1969V16.3352H236.649V85.6622H233.449L230.676 78.8361C229.112 81.3959 227.085 83.4578 224.596 85.0223C222.179 86.5154 219.513 87.262 216.597 87.262C206.145 87.262 200.919 82.2846 200.919 72.33ZM270.821 16.3352H278.287V73.3966C278.287 77.9475 277.007 81.3959 274.447 83.7423C271.887 86.0888 268.332 87.262 263.781 87.262C259.231 87.262 255.711 86.0888 253.222 83.7423C250.734 81.3959 249.489 77.9475 249.489 73.3966V66.464H256.956V73.8232C256.956 78.5161 259.231 80.8627 263.781 80.8627C268.474 80.8627 270.821 78.5161 270.821 73.8232V16.3352ZM306.005 85.6622H298.539V16.3352H306.005V85.6622ZM334.752 85.6622H327.286V16.3352H330.486L333.579 24.2278C335.855 17.8996 339.48 14.7355 344.458 14.7355C352.919 14.7355 357.15 19.3572 357.15 28.6008V35.5335H350.004V28.1741C350.004 23.4813 348.049 21.1349 344.138 21.1349C341.791 21.1349 339.623 22.4859 337.631 25.1878C335.712 27.8897 334.752 31.8006 334.752 36.9201V85.6622ZM403.054 85.6622H399.854L397.081 78.8361C395.588 81.3959 393.633 83.4578 391.215 85.0223C388.798 86.5154 386.131 87.262 383.215 87.262C372.977 87.262 367.857 82.2846 367.857 72.33V61.6645C367.857 51.7099 372.977 46.7325 383.215 46.7325H395.588V29.2407C395.588 26.6809 394.771 24.6901 393.135 23.268C391.499 21.8459 389.082 21.1349 385.882 21.1349C379.555 21.1349 376.39 23.8369 376.39 29.2407V35.5335H368.924V29.6674C368.924 24.9034 370.31 21.2415 373.083 18.6818C375.928 16.0509 380.194 14.7355 385.882 14.7355C391.571 14.7355 395.838 16.0509 398.681 18.6818C401.597 21.2415 403.054 24.9034 403.054 29.6674V85.6622ZM395.588 53.1318H383.215C380.229 53.1318 378.167 53.8785 377.029 55.3716C375.893 56.8648 375.323 58.9625 375.323 61.6645V72.33C375.323 75.032 375.893 77.1297 377.029 78.6228C378.167 80.116 380.229 80.8627 383.215 80.8627C386.202 80.8627 388.976 79.7249 391.535 77.4496C394.095 75.1031 395.446 72.7921 395.588 70.5169V53.1318Z" fill="#A3A3A3"/>
<path d="M161.021 85.6622V88.3286H163.687V85.6622H161.021ZM153.555 85.6622H150.888V88.3286H153.555V85.6622ZM153.555 16.3354V13.669H150.888V16.3354H153.555ZM161.021 16.3354H163.687V13.669H161.021V16.3354ZM161.021 45.7726H158.355V55.0019L163.277 47.1946L161.021 45.7726ZM179.579 16.3354V13.669H178.107L177.324 14.9133L179.579 16.3354ZM187.898 16.3354L190.152 17.7601L192.739 13.669H187.898V16.3354ZM169.02 46.1993L166.766 44.7746L165.954 46.059L166.645 47.4122L169.02 46.1993ZM189.178 85.6622V88.3286H193.534L191.552 84.4493L189.178 85.6622ZM180.965 85.6622L178.589 86.8705L179.33 88.3286H180.965V85.6622ZM164.54 53.3452L166.918 52.1371L164.775 47.9228L162.277 51.9358L164.54 53.3452ZM161.021 58.9981L158.757 57.5886L158.355 58.2357V58.9981H161.021ZM161.021 82.9958H153.555V88.3286H161.021V82.9958ZM156.221 85.6622V16.3354H150.888V85.6622H156.221ZM153.555 19.0018H161.021V13.669H153.555V19.0018ZM158.355 16.3354V45.7726H163.687V16.3354H158.355ZM163.277 47.1946L181.834 17.7574L177.324 14.9133L158.765 44.3507L163.277 47.1946ZM179.579 19.0018H187.898V13.669H179.579V19.0018ZM185.644 14.9106L166.766 44.7746L171.274 47.6239L190.152 17.7601L185.644 14.9106ZM166.645 47.4122L186.803 86.8753L191.552 84.4493L171.395 44.9862L166.645 47.4122ZM189.178 82.9958H180.965V88.3286H189.178V82.9958ZM183.342 84.4541L166.918 52.1371L162.163 54.5535L178.589 86.8705L183.342 84.4541ZM162.277 51.9358L158.757 57.5886L163.284 60.4075L166.804 54.7547L162.277 51.9358ZM158.355 58.9981V85.6622H163.687V58.9981H158.355ZM200.919 16.3354V13.669H198.252V16.3354H200.919ZM208.384 16.3354H211.051V13.669H208.384V16.3354ZM210.091 78.6229L207.97 80.2388L207.994 80.2702L208.018 80.3007L210.091 78.6229ZM229.182 16.3354V13.669H226.517V16.3354H229.182ZM236.649 16.3354H239.315V13.669H236.649V16.3354ZM236.649 85.6622V88.3286H239.315V85.6622H236.649ZM233.449 85.6622L230.979 86.666L231.654 88.3286H233.449V85.6622ZM230.676 78.8363L233.146 77.8325L231.157 72.9357L228.401 77.4457L230.676 78.8363ZM224.596 85.0223L225.998 87.2909L226.016 87.2797L224.596 85.0223ZM203.584 72.3302V16.3354H198.252V72.3302H203.584ZM200.919 19.0018H208.384V13.669H200.919V19.0018ZM205.718 16.3354V72.3302H211.051V16.3354H205.718ZM205.718 72.3302C205.718 75.3678 206.352 78.1166 207.97 80.2388L212.213 77.0071C211.553 76.1429 211.051 74.6966 211.051 72.3302H205.718ZM208.018 80.3007C209.981 82.725 213.164 83.5291 216.597 83.5291V78.1963C213.774 78.1963 212.619 77.5072 212.163 76.9452L208.018 80.3007ZM216.597 83.5291C220.489 83.5291 223.993 82.0005 227.041 79.1996L223.432 75.273C221.218 77.3072 218.962 78.1963 216.597 78.1963V83.5291ZM227.041 79.1996C229.913 76.5602 231.849 73.5535 231.849 70.197H226.517C226.517 71.3914 225.821 73.0773 223.432 75.273L227.041 79.1996ZM231.849 70.197V16.3354H226.517V70.197H231.849ZM229.182 19.0018H236.649V13.669H229.182V19.0018ZM233.982 16.3354V85.6622H239.315V16.3354H233.982ZM236.649 82.9958H233.449V88.3286H236.649V82.9958ZM235.919 84.6586L233.146 77.8325L228.206 79.8399L230.979 86.666L235.919 84.6586ZM228.401 77.4457C227.046 79.6617 225.31 81.4242 223.178 82.7649L226.016 87.2797C228.86 85.4918 231.176 83.1302 232.95 80.2267L228.401 77.4457ZM223.195 82.7538C221.21 83.9798 219.03 84.5957 216.597 84.5957V89.9285C219.993 89.9285 223.148 89.0513 225.998 87.2909L223.195 82.7538ZM216.597 84.5957C211.751 84.5957 208.61 83.4396 206.677 81.5983C204.768 79.7802 203.584 76.8623 203.584 72.3302H198.252C198.252 77.7526 199.682 82.3008 202.999 85.4599C206.293 88.5961 210.991 89.9285 216.597 89.9285V84.5957ZM270.821 16.3354V13.669H268.155V16.3354H270.821ZM278.287 16.3354H280.953V13.669H278.287V16.3354ZM249.489 66.464V63.7976H246.822V66.464H249.489ZM256.956 66.464H259.621V63.7976H256.956V66.464ZM270.821 19.0018H278.287V13.669H270.821V19.0018ZM275.62 16.3354V73.3968H280.953V16.3354H275.62ZM275.62 73.3968C275.62 77.4447 274.496 80.0798 272.644 81.7768L276.248 85.7082C279.517 82.7121 280.953 78.4501 280.953 73.3968H275.62ZM272.644 81.7768C270.713 83.547 267.877 84.5957 263.781 84.5957V89.9285C268.786 89.9285 273.06 88.6307 276.248 85.7082L272.644 81.7768ZM263.781 84.5957C259.681 84.5957 256.9 83.5451 255.051 81.8023L251.393 85.6824C254.521 88.6327 258.78 89.9285 263.781 89.9285V84.5957ZM255.051 81.8023C253.257 80.1104 252.156 77.4662 252.156 73.3968H246.822C246.822 78.4286 248.21 82.6815 251.393 85.6824L255.051 81.8023ZM252.156 73.3968V66.464H246.822V73.3968H252.156ZM249.489 69.1304H256.956V63.7976H249.489V69.1304ZM254.289 66.464V73.8233H259.621V66.464H254.289ZM254.289 73.8233C254.289 76.5607 254.951 79.1071 256.747 80.959C258.558 82.8262 261.073 83.5291 263.781 83.5291V78.1963C261.937 78.1963 261.041 77.7259 260.576 77.2468C260.096 76.7521 259.621 75.7789 259.621 73.8233H254.289ZM263.781 83.5291C266.539 83.5291 269.097 82.838 270.946 80.9883C272.795 79.1386 273.487 76.5807 273.487 73.8233H268.155C268.155 75.7589 267.672 76.7207 267.175 77.2174C266.678 77.7142 265.716 78.1963 263.781 78.1963V83.5291ZM273.487 73.8233V16.3354H268.155V73.8233H273.487ZM306.005 85.6622V88.3286H308.671V85.6622H306.005ZM298.539 85.6622H295.872V88.3286H298.539V85.6622ZM298.539 16.3354V13.669H295.872V16.3354H298.539ZM306.005 16.3354H308.671V13.669H306.005V16.3354ZM306.005 82.9958H298.539V88.3286H306.005V82.9958ZM301.206 85.6622V16.3354H295.872V85.6622H301.206ZM298.539 19.0018H306.005V13.669H298.539V19.0018ZM303.338 16.3354V85.6622H308.671V16.3354H303.338ZM334.752 85.6622V88.3286H337.418V85.6622H334.752ZM327.286 85.6622H324.619V88.3286H327.286V85.6622ZM327.286 16.3354V13.669H324.619V16.3354H327.286ZM330.486 16.3354L332.969 15.3624L332.304 13.669H330.486V16.3354ZM333.578 24.228L331.096 25.2009L333.686 31.81L336.088 25.1301L333.578 24.228ZM357.15 35.5336V38.2H359.816V35.5336H357.15ZM350.004 35.5336H347.338V38.2H350.004V35.5336ZM337.631 25.1879L335.485 23.6062L335.472 23.6247L335.457 23.6434L337.631 25.1879ZM334.752 82.9958H327.286V88.3286H334.752V82.9958ZM329.953 85.6622V16.3354H324.619V85.6622H329.953ZM327.286 19.0018H330.486V13.669H327.286V19.0018ZM328.004 17.3083L331.096 25.2009L336.061 23.255L332.969 15.3624L328.004 17.3083ZM336.088 25.1301C337.13 22.2323 338.397 20.306 339.758 19.1177C341.067 17.9751 342.589 17.4019 344.458 17.4019V12.0691C341.349 12.0691 338.569 13.078 336.252 15.0995C333.987 17.0755 332.303 19.8953 331.07 23.3257L336.088 25.1301ZM344.458 17.4019C348.213 17.4019 350.558 18.4168 352.01 20.0022C353.503 21.6323 354.484 24.3345 354.484 28.6009H359.816C359.816 23.6236 358.682 19.3932 355.944 16.4015C353.164 13.3651 349.163 12.0691 344.458 12.0691V17.4019ZM354.484 28.6009V35.5336H359.816V28.6009H354.484ZM357.15 32.8672H350.004V38.2H357.15V32.8672ZM352.671 35.5336V28.1743H347.338V35.5336H352.671ZM352.671 28.1743C352.671 25.5232 352.128 23.0386 350.586 21.1877C348.966 19.2438 346.645 18.4685 344.138 18.4685V23.8013C345.542 23.8013 346.154 24.1992 346.489 24.6017C346.901 25.0974 347.338 26.1325 347.338 28.1743H352.671ZM344.138 18.4685C340.621 18.4685 337.749 20.5332 335.485 23.6062L339.779 26.7696C341.495 24.4386 342.962 23.8013 344.138 23.8013V18.4685ZM335.457 23.6434C333.087 26.9818 332.086 31.5285 332.086 36.9201H337.418C337.418 32.0726 338.337 28.798 339.806 26.7322L335.457 23.6434ZM332.086 36.9201V85.6622H337.418V36.9201H332.086ZM403.054 85.6622V88.3286H405.72V85.6622H403.054ZM399.854 85.6622L397.384 86.666L398.059 88.3286H399.854V85.6622ZM397.081 78.8363L399.551 77.8325L397.51 72.8085L394.779 77.4926L397.081 78.8363ZM391.215 85.0223L392.617 87.2909L392.64 87.2762L392.663 87.2611L391.215 85.0223ZM395.588 46.7325V49.3989H398.254V46.7325H395.588ZM376.389 35.5336V38.2H379.056V35.5336H376.389ZM368.924 35.5336H366.257V38.2H368.924V35.5336ZM373.083 18.6818L374.892 20.6412L374.895 20.6392L373.083 18.6818ZM398.681 18.6818L396.87 20.6392L396.896 20.6627L396.921 20.6854L398.681 18.6818ZM395.588 53.1319H398.254V50.4655H395.588V53.1319ZM391.534 77.4497L393.307 79.4425L393.321 79.4289L393.337 79.4154L391.534 77.4497ZM395.588 70.517L398.25 70.6833L398.254 70.6002V70.517H395.588ZM403.054 82.9958H399.854V88.3286H403.054V82.9958ZM402.324 84.6586L399.551 77.8325L394.611 79.8399L397.384 86.666L402.324 84.6586ZM394.779 77.4926C393.489 79.702 391.823 81.4533 389.767 82.7836L392.663 87.2611C395.443 85.4628 397.687 83.09 399.384 80.1799L394.779 77.4926ZM389.814 82.7538C387.828 83.9798 385.65 84.5957 383.215 84.5957V89.9285C386.612 89.9285 389.766 89.0513 392.617 87.2909L389.814 82.7538ZM383.215 84.5957C378.489 84.5957 375.437 83.4462 373.555 81.6173C371.688 79.802 370.524 76.8772 370.524 72.3302H365.191C365.191 77.7379 366.586 82.2788 369.839 85.441C373.077 88.5895 377.704 89.9285 383.215 89.9285V84.5957ZM370.524 72.3302V61.6645H365.191V72.3302H370.524ZM370.524 61.6645C370.524 57.1174 371.688 54.1926 373.555 52.3773C375.437 50.5484 378.489 49.3989 383.215 49.3989V44.0661C377.704 44.0661 373.077 45.4053 369.839 48.5538C366.586 51.7158 365.191 56.2567 365.191 61.6645H370.524ZM383.215 49.3989H395.588V44.0661H383.215V49.3989ZM398.254 46.7325V29.2409H392.922V46.7325H398.254ZM398.254 29.2409C398.254 26.0632 397.209 23.2773 394.885 21.256L391.385 25.2802C392.331 26.1029 392.922 27.299 392.922 29.2409H398.254ZM394.885 21.256C392.578 19.2503 389.426 18.4685 385.882 18.4685V23.8013C388.738 23.8013 390.421 24.4416 391.385 25.2802L394.885 21.256ZM385.882 18.4685C382.402 18.4685 379.292 19.2027 377.032 21.1337C374.69 23.1334 373.723 26.0081 373.723 29.2409H379.056C379.056 27.0696 379.673 25.8913 380.494 25.1891C381.397 24.4181 383.035 23.8013 385.882 23.8013V18.4685ZM373.723 29.2409V35.5336H379.056V29.2409H373.723ZM376.389 32.8672H368.924V38.2H376.389V32.8672ZM371.591 35.5336V29.6674H366.257V35.5336H371.591ZM371.591 29.6674C371.591 25.4395 372.801 22.5704 374.892 20.6412L371.275 16.7225C367.818 19.9128 366.257 24.3675 366.257 29.6674H371.591ZM374.895 20.6392C377.058 18.6381 380.555 17.4019 385.882 17.4019V12.0691C379.832 12.0691 374.797 13.4638 371.273 16.7244L374.895 20.6392ZM385.882 17.4019C391.209 17.4019 394.707 18.6381 396.87 20.6392L400.492 16.7244C396.966 13.4638 391.933 12.0691 385.882 12.0691V17.4019ZM396.921 20.6854C399.132 22.6259 400.387 25.4809 400.387 29.6674H405.72C405.72 24.326 404.061 19.8572 400.44 16.6781L396.921 20.6854ZM400.387 29.6674V85.6622H405.72V29.6674H400.387ZM395.588 50.4655H383.215V55.7983H395.588V50.4655ZM383.215 50.4655C379.893 50.4655 376.79 51.2868 374.909 53.7559L379.151 56.9876C379.545 56.4702 380.565 55.7983 383.215 55.7983V50.4655ZM374.909 53.7559C373.292 55.8781 372.656 58.627 372.656 61.6645H377.99C377.99 59.298 378.493 57.8517 379.151 56.9876L374.909 53.7559ZM372.656 61.6645V72.3302H377.99V61.6645H372.656ZM372.656 72.3302C372.656 75.3678 373.292 78.1166 374.909 80.2388L379.151 77.0071C378.493 76.1429 377.99 74.6966 377.99 72.3302H372.656ZM374.909 80.2388C376.79 82.7078 379.893 83.5291 383.215 83.5291V78.1963C380.565 78.1963 379.545 77.5244 379.151 77.0071L374.909 80.2388ZM383.215 83.5291C386.951 83.5291 390.335 82.0839 393.307 79.4425L389.763 75.4568C387.616 77.3662 385.454 78.1963 383.215 78.1963V83.5291ZM393.337 79.4154C396.145 76.841 398.046 73.9327 398.25 70.6833L392.927 70.3506C392.845 71.6521 392.044 73.3655 389.733 75.484L393.337 79.4154ZM398.254 70.517V53.1319H392.922V70.517H398.254Z" fill="#A3A3A3"/>
</g>
<defs>
<clipPath id="clip0_1413_4092">
<rect width="405.36" height="100" fill="white" transform="translate(0.359985 0.553223)"/>
</clipPath>
</defs>
</svg>
