<svg width="101" height="31" viewBox="0 0 101 31" fill="none" xmlns="http://www.w3.org/2000/svg">
<path fill-rule="evenodd" clip-rule="evenodd" d="M4.47616 29.9254H5.5225V28.8791V18.7148L5.76505 18.3252L11.37 29.3532L11.6609 29.9254H12.3028H15.5255H17.2349L16.4573 28.4031L8.81825 13.4482L15.9077 2.23325L16.9225 0.627812H15.0233H11.7587H11.1814L10.8736 1.11614L5.5225 9.60405V1.67416V0.627812H4.47616H1.54634H0.5V1.67416V28.8791V29.9254H1.54634H4.47616ZM4.47616 18.4156L5.2111 17.2353L5.85727 16.1974L6.41129 17.2874L12.3028 28.8791H14.3506H15.5255L14.991 27.8327L7.61519 13.3932L14.3618 2.7205L15.0233 1.67416H13.7854H11.7587L5.5225 11.5661L4.47616 13.2258V11.2638V2.7205V1.67416H3.42981H2.59269H1.54634V2.7205V27.8327V28.8791H2.59269H3.42981H4.47616V27.8327V18.4156ZM20.1327 0.627812H19.0863V1.67416V23.6474C19.0863 25.7752 19.6475 27.5599 20.9493 28.7997C22.2414 30.0304 24.0855 30.5532 26.2852 30.5532C27.6181 30.5532 28.8557 30.209 29.9741 29.5182L29.9811 29.5138C30.5484 29.1572 31.0622 28.7425 31.5217 28.2713L31.9286 29.2729L32.1938 29.9254H32.8981H34.1537H35.2V28.8791V1.67416V0.627812H34.1537H31.2239H30.1776V1.67416V22.8103C30.1776 23.2789 29.905 23.9405 28.9674 24.8022C28.0986 25.6005 27.2133 25.9493 26.2852 25.9493C25.195 25.9493 24.7387 25.6876 24.5542 25.469C24.3009 25.1286 24.1088 24.5636 24.1088 23.6474V1.67416V0.627812H23.0624H20.1327ZM31.8099 26.2004C31.5915 26.5578 31.3502 26.8904 31.0859 27.1983C30.6073 27.7559 30.0534 28.2325 29.4242 28.628C28.4756 29.2139 27.4293 29.5069 26.2852 29.5069C22.1835 29.5069 20.1327 27.5537 20.1327 23.6474V2.7205V1.67416H21.179H22.0161H23.0624V2.7205V23.6474C23.0624 24.7076 23.2856 25.5308 23.7321 26.1167C24.2065 26.7027 25.0574 26.9957 26.2852 26.9957C27.5129 26.9957 28.6429 26.5213 29.6753 25.5726C30.7078 24.624 31.2239 23.7032 31.2239 22.8103V2.7205V1.67416H32.2703H33.1073H34.1537V2.7205V27.8327V28.8791H33.1073H32.8981L32.2848 27.3696L31.8099 26.2004ZM47.5632 0.627812H46.5169V1.67416V24.2333C46.5169 24.9928 46.3277 25.3703 46.1327 25.5652C45.9378 25.7601 45.5604 25.9493 44.8009 25.9493C44.0776 25.9493 43.7254 25.7647 43.543 25.5766C43.3549 25.3827 43.1686 25.0007 43.1686 24.2333V21.3454V20.2991H42.1222H39.1925H38.1461V21.3454V24.0659C38.1461 26.0404 38.6905 27.7094 39.9395 28.887C41.1673 30.0447 42.8386 30.5532 44.8009 30.5532C46.765 30.5532 48.4421 30.044 49.6932 28.8971C50.9759 27.7214 51.5393 26.0489 51.5393 24.0659V1.67416V0.627812H50.493H47.5632ZM61.37 29.9254H62.4164V28.8791V1.67416V0.627812H61.37H58.4403H57.3939V1.67416V28.8791V29.9254H58.4403H61.37ZM72.6509 29.9254H73.6973V28.8791V9.75193C73.6973 7.85531 74.0559 6.57222 74.6289 5.76121C75.3005 4.85266 75.874 4.6039 76.3341 4.6039C76.8849 4.6039 77.1251 4.76005 77.2567 4.91802C77.4188 5.11252 77.5897 5.51869 77.5897 6.31992V9.20784V10.2542H78.636H81.4402H82.4866V9.20784V6.48734C82.4866 4.53416 82.0416 2.8741 80.9669 1.70009C79.8762 0.508547 78.306 0 76.4596 0C75.2396 0 74.1487 0.395923 73.2395 1.18918C72.8989 1.48639 72.5917 1.83228 72.3152 2.22163L71.9509 1.29238L71.6905 0.627812H70.9768H69.7212H68.6748V1.67416V28.8791V29.9254H69.7212H72.6509ZM76.3341 3.55756C75.4133 3.55756 74.5622 4.08773 73.781 5.14802C73.0276 6.20832 72.6509 7.74293 72.6509 9.75193V27.8327V28.8791H71.6046H70.7675H69.7212V27.8327V2.7205V1.67416H70.7675H70.9768L71.6422 3.37187L72.1906 4.77132C72.369 4.27513 72.5685 3.82851 72.7893 3.43143C73.6732 1.84139 74.8967 1.04634 76.4596 1.04634C79.78 1.04634 81.4402 2.86001 81.4402 6.48734V8.1615V9.20784H80.3939H79.6824H78.636V8.1615V6.31992C78.636 4.47835 77.8688 3.55756 76.3341 3.55756ZM99.4537 29.9254H100.5V28.8791V6.90588C100.5 4.81478 99.852 3.06456 98.4382 1.81762C97.0555 0.544694 95.0836 0 92.7152 0C90.3412 0 88.3655 0.547344 86.9823 1.82682C85.6265 3.07868 85.0141 4.82647 85.0141 6.90588V9.20784V10.2542H86.0605H88.9902H90.0366V9.20784V6.73845C90.0366 5.88644 90.2783 5.42404 90.601 5.1485C90.9553 4.84595 91.598 4.6039 92.7152 4.6039C93.8356 4.6039 94.4963 4.85515 94.8747 5.18423C95.246 5.50709 95.4776 5.97646 95.4776 6.73845V12.5561H91.6689C89.5059 12.5561 87.6901 13.0816 86.4194 14.3171C85.143 15.558 84.5956 17.3399 84.5956 19.462V23.6474C84.5956 25.7694 85.143 27.5514 86.4194 28.7922C87.6901 30.0277 89.5059 30.5532 91.6689 30.5532C93.0018 30.5532 94.2393 30.209 95.3578 29.5182L95.3672 29.5124L95.3764 29.5065C95.9134 29.159 96.3995 28.7569 96.8341 28.3017L97.2287 29.2729L97.4938 29.9254H98.1981H99.4537ZM92.7152 1.04634C94.9474 1.04634 96.6216 1.56256 97.7377 2.59494C98.8817 3.59942 99.4537 5.03638 99.4537 6.90588V27.8327V28.8791H98.4073H98.1981L97.5908 27.3841L97.11 26.2004C96.896 26.5671 96.6578 26.9078 96.3956 27.2224C95.9395 27.7696 95.4103 28.2382 94.8079 28.628C93.8593 29.2139 92.8129 29.5069 91.6689 29.5069C87.6509 29.5069 85.6419 27.5537 85.6419 23.6474V19.462C85.6419 15.5557 87.6509 13.6025 91.6689 13.6025H95.4776H96.5239V12.5561V6.73845C96.5239 5.73397 96.2031 4.9527 95.5613 4.39465C94.9195 3.83658 93.9709 3.55756 92.7152 3.55756C90.2319 3.55756 88.9902 4.61786 88.9902 6.73845V8.1615V9.20784H87.9439H87.1068H86.0605V8.1615V6.90588C86.0605 5.03638 86.6046 3.59942 87.6929 2.59494C88.8089 1.56256 90.483 1.04634 92.7152 1.04634ZM91.6689 17.16H95.4776V22.8988C95.4361 23.4047 95.1181 24.0659 94.2323 24.8795C93.3914 25.625 92.545 25.9493 91.6689 25.9493C90.6289 25.9493 90.2284 25.6856 90.0736 25.4826C89.8154 25.1435 89.618 24.576 89.618 23.6474V19.462C89.618 18.5335 89.8154 17.9658 90.0736 17.6267C90.2284 17.4237 90.6289 17.16 91.6689 17.16ZM91.6689 16.1137H95.4776H96.5239V17.16V22.9358C96.4681 23.8287 95.9379 24.7356 94.9335 25.6563C93.929 26.5493 92.8408 26.9957 91.6689 26.9957C90.497 26.9957 89.6878 26.7027 89.2414 26.1167C88.7949 25.5308 88.5717 24.7076 88.5717 23.6474V19.462C88.5717 18.4017 88.7949 17.5786 89.2414 16.9926C89.6878 16.4067 90.497 16.1137 91.6689 16.1137ZM47.5632 1.67416H48.6095H49.4466H50.493V2.7205V24.0659C50.493 25.8517 49.9907 27.2049 48.9862 28.1257C47.9817 29.0465 46.5866 29.5069 44.8009 29.5069C43.0151 29.5069 41.634 29.0465 40.6573 28.1257C39.6808 27.2049 39.1925 25.8517 39.1925 24.0659V22.3917V21.3454H40.2388H41.0759H42.1222V22.3917V24.2333C42.1222 26.0749 43.0151 26.9957 44.8009 26.9957C46.6424 26.9957 47.5632 26.0749 47.5632 24.2333V2.7205V1.67416ZM61.37 28.8791H60.3237H59.4866H58.4403V27.8327V2.7205V1.67416H59.4866H60.3237H61.37V2.7205V27.8327V28.8791Z" fill="#A3A3A3"/>
</svg>
