<svg width="406" height="101" viewBox="0 0 406 101" fill="none"
	xmlns="http://www.w3.org/2000/svg">
	<g clip-path="url(#clip0_1413_4123)">
		<path d="M0 60.8052C0 38.606 17.9959 20.6102 40.1951 20.6102H46.7028C74.1873 20.6102 96.4677 42.8909 96.4677 70.3754C96.4677 87.2894 82.7572 101 65.8433 101H40.1951C17.9959 101 0 83.0046 0 60.8052Z" fill="#C4C4C4"/>
		<path fill-rule="evenodd" clip-rule="evenodd" d="M1.84013 48.7467C0.644539 52.5534 0 56.604 0 60.8052C0 83.0046 17.9959 101 40.1951 101H48.2341V80.9024C48.2341 63.1434 33.8373 48.7467 16.078 48.7467H1.84013Z" fill="#757575"/>
		<path d="M48.2341 52.7662C50.454 52.7662 52.2536 50.9666 52.2536 48.7467C52.2536 46.5268 50.454 44.7272 48.2341 44.7272C46.0142 44.7272 44.2146 46.5268 44.2146 48.7467C44.2146 50.9666 46.0142 52.7662 48.2341 52.7662Z" fill="#757575"/>
		<path d="M95.7385 1.31401C80.6373 9.68468 75.1816 28.7124 83.5522 43.8136L84.7645 46.001L96.5771 39.4533C106.362 34.0291 109.898 21.6993 104.474 11.9137L99.139 2.28894C98.4694 1.08082 96.9468 0.644421 95.7385 1.31401Z" fill="#C4C4C4"/>
		<path d="M128.477 60.3752C113.375 68.7459 94.3478 63.2897 85.9777 48.1886L84.7646 46.0012L96.5771 39.4536C106.362 34.0294 118.692 37.565 124.117 47.3504L129.452 56.9752C130.122 58.1833 129.686 59.7055 128.477 60.3752Z" fill="#C4C4C4"/>
		<path fill-rule="evenodd" clip-rule="evenodd" d="M160.66 88.3286H163.327V85.6622V59.7605L163.945 58.7676L178.228 86.8705L178.969 88.3286H180.605H188.818H193.175L191.193 84.4493L171.726 46.3396L189.792 17.7601L192.378 13.669H187.539H179.22H177.748L176.963 14.9134L163.327 36.5433V16.3354V13.669H160.66H153.195H150.528V16.3354V85.6622V88.3286H153.195H160.66ZM160.66 58.9981L162.533 55.9901L164.18 53.3452L165.592 56.1229L180.605 85.6622H185.823H188.818L187.456 82.9958L168.66 46.1993L185.852 19.0018L187.539 16.3354H184.383H179.22L163.327 41.5432L160.66 45.7726V40.7729V19.0018V16.3354H157.994H155.86H153.195V19.0018V82.9958V85.6622H155.86H157.994H160.66V82.9958V58.9981ZM200.558 13.669H197.892V16.3354V72.3302C197.892 77.7526 199.322 82.3006 202.64 85.4599C205.932 88.5961 210.632 89.9285 216.236 89.9285C219.634 89.9285 222.787 89.0513 225.638 87.2909L225.655 87.2797C227.102 86.371 228.41 85.3143 229.582 84.1133L230.618 86.666L231.294 88.3286H233.089H236.289H238.955V85.6622V16.3354V13.669H236.289H228.822H226.156V16.3354V70.197C226.156 71.3914 225.462 73.0773 223.073 75.273C220.859 77.3072 218.602 78.1963 216.236 78.1963C213.459 78.1963 212.296 77.5294 211.826 76.9725C211.181 76.1047 210.692 74.6651 210.692 72.3302V16.3354V13.669H208.025H200.558ZM230.316 78.8363C229.759 79.7468 229.144 80.5945 228.471 81.3792C227.251 82.8001 225.839 84.0147 224.237 85.0223C221.819 86.5155 219.152 87.2621 216.236 87.2621C205.785 87.2621 200.558 82.2847 200.558 72.3302V19.0018V16.3354H203.225H205.358H208.025V19.0018V72.3302C208.025 75.0321 208.593 77.1297 209.731 78.6229C210.939 80.1161 213.108 80.8627 216.236 80.8627C219.365 80.8627 222.246 79.6541 224.876 77.2364C227.507 74.819 228.822 72.4726 228.822 70.197V19.0018V16.3354H231.489H233.623H236.289V19.0018V82.9958V85.6622H233.623H233.089L231.525 81.8157L230.316 78.8363ZM270.46 13.669H267.794V16.3354V73.8233C267.794 75.7589 267.312 76.7207 266.815 77.2174C266.318 77.7142 265.357 78.1963 263.421 78.1963C261.578 78.1963 260.68 77.7259 260.215 77.2465C259.737 76.7524 259.262 75.7789 259.262 73.8233V66.464V63.7976H256.595H249.13H246.463V66.464V73.3968C246.463 78.4286 247.85 82.6815 251.033 85.6824C254.162 88.6327 258.421 89.9285 263.421 89.9285C268.427 89.9285 272.7 88.6307 275.888 85.7082C279.157 82.7121 280.592 78.4501 280.592 73.3968V16.3354V13.669H277.926H270.46ZM305.645 88.3286H308.31V85.6622V16.3354V13.669H305.645H298.178H295.512V16.3354V85.6622V88.3286H298.178H305.645ZM334.392 88.3286H337.059V85.6622V36.9201C337.059 32.0869 337.972 28.8172 339.432 26.7505C341.144 24.4352 342.605 23.8013 343.778 23.8013C345.181 23.8013 345.793 24.1992 346.129 24.6017C346.542 25.0974 346.978 26.1325 346.978 28.1743V35.5336V38.2H349.643H356.79H359.456V35.5336V28.6009C359.456 23.6236 358.322 19.3932 355.584 16.4015C352.805 13.3651 348.803 12.0691 344.097 12.0691C340.989 12.0691 338.208 13.078 335.892 15.0995C335.024 15.857 334.242 16.7383 333.537 17.7305L332.608 15.3625L331.945 13.669H330.125H326.927H324.26V16.3354V85.6622V88.3286H326.927H334.392ZM343.778 21.1349C341.432 21.1349 339.262 22.4859 337.272 25.1879C335.352 27.8899 334.392 31.8006 334.392 36.9201V82.9958V85.6622H331.725H329.592H326.927V82.9958V19.0018V16.3354H329.592H330.125L331.821 20.6617L333.219 24.228C333.673 22.9634 334.182 21.8254 334.745 20.8135C336.996 16.7615 340.115 14.7355 344.097 14.7355C352.559 14.7355 356.79 19.3574 356.79 28.6009V32.8672V35.5336H354.123H352.31H349.643V32.8672V28.1743C349.643 23.4813 347.689 21.1349 343.778 21.1349ZM402.694 88.3286H405.361V85.6622V29.6675C405.361 24.3387 403.709 19.8785 400.107 16.701C396.582 13.4572 391.558 12.0691 385.522 12.0691C379.473 12.0691 374.438 13.4639 370.913 16.7244C367.458 19.9146 365.898 24.3685 365.898 29.6675V35.5336V38.2H368.563H376.03H378.697V35.5336V29.2409C378.697 27.0696 379.312 25.8913 380.134 25.1892C381.038 24.4181 382.675 23.8013 385.522 23.8013C388.377 23.8013 390.062 24.4416 391.026 25.2802C391.972 26.103 392.562 27.299 392.562 29.2409V44.0661H382.856C377.343 44.0661 372.717 45.4053 369.478 48.5538C366.226 51.7158 364.831 56.2567 364.831 61.6645V72.3302C364.831 77.7379 366.226 82.2788 369.478 85.441C372.717 88.5895 377.343 89.9285 382.856 89.9285C386.253 89.9285 389.406 89.0513 392.256 87.2909L392.281 87.2762L392.304 87.2611C393.672 86.3755 394.911 85.3508 396.019 84.1909L397.023 86.666L397.7 88.3286H399.494H402.694ZM385.522 14.7355C391.21 14.7355 395.477 16.051 398.321 18.6818C401.237 21.2416 402.694 24.9034 402.694 29.6675V82.9958V85.6622H400.028H399.494L397.946 81.8524L396.721 78.8363C396.176 79.7706 395.569 80.6387 394.901 81.4405C393.739 82.835 392.39 84.0291 390.854 85.0223C388.438 86.5155 385.771 87.2621 382.856 87.2621C372.617 87.2621 367.497 82.2847 367.497 72.3302V61.6645C367.497 51.7099 372.617 46.7325 382.856 46.7325H392.562H395.228V44.0661V29.2409C395.228 26.6811 394.41 24.6901 392.775 23.2681C391.14 21.8459 388.722 21.1349 385.522 21.1349C379.194 21.1349 376.03 23.8369 376.03 29.2409V32.8672V35.5336H373.363H371.23H368.563V32.8672V29.6675C368.563 24.9034 369.95 21.2416 372.724 18.6818C375.568 16.051 379.833 14.7355 385.522 14.7355ZM382.856 55.7983H392.562V70.4227C392.456 71.7117 391.646 73.3968 389.388 75.4702C387.246 77.3699 385.089 78.1963 382.856 78.1963C380.206 78.1963 379.185 77.5244 378.79 77.0071C378.132 76.1429 377.63 74.6966 377.63 72.3302V61.6645C377.63 59.2984 378.132 57.8517 378.79 56.9876C379.185 56.4702 380.206 55.7983 382.856 55.7983ZM382.856 53.1319H392.562H395.228V55.7983V70.517C395.086 72.7923 393.735 75.1032 391.175 77.4497C388.615 79.7252 385.842 80.8627 382.856 80.8627C379.87 80.8627 377.808 80.1161 376.67 78.6229C375.532 77.1297 374.963 75.0321 374.963 72.3302V61.6645C374.963 58.9627 375.532 56.8649 376.67 55.3718C377.808 53.8786 379.87 53.1319 382.856 53.1319ZM270.46 16.3354H273.127H275.26H277.926V19.0018V73.3968C277.926 77.9475 276.646 81.396 274.086 83.7425C271.527 86.0889 267.971 87.2621 263.421 87.2621C258.87 87.2621 255.35 86.0889 252.862 83.7425C250.374 81.396 249.13 77.9475 249.13 73.3968V69.1304V66.464H251.795H253.928H256.595V69.1304V73.8233C256.595 78.5163 258.87 80.8627 263.421 80.8627C268.114 80.8627 270.46 78.5163 270.46 73.8233V19.0018V16.3354ZM305.645 85.6622H302.978H300.845H298.178V82.9958V19.0018V16.3354H300.845H302.978H305.645V19.0018V82.9958V85.6622Z" fill="#757575"/>
	</g>
	<defs>
		<clipPath id="clip0_1413_4123">
			<rect width="405.36" height="100" fill="white" transform="translate(0.439941 0.553223)"/>
		</clipPath>
	</defs>
</svg>
