<svg width="100" height="100" viewBox="0 0 100 100" fill="none" xmlns="http://www.w3.org/2000/svg">
<path d="M0 57.557C0 40.4499 13.868 26.582 30.9751 26.582H35.9901C57.1703 26.582 74.3399 43.7519 74.3399 64.932C74.3399 77.9663 63.7743 88.5319 50.7401 88.5319H30.9751C13.868 88.5319 0 74.6643 0 57.557Z" fill="#C4C4C4"/>
<path fill-rule="evenodd" clip-rule="evenodd" d="M1.41805 48.2645C0.496697 51.198 0 54.3195 0 57.557C0 74.6643 13.868 88.5319 30.9751 88.5319H37.1701V73.0443C37.1701 59.3589 26.0757 48.2645 12.3901 48.2645H1.41805Z" fill="#757575"/>
<path d="M37.1701 51.362C38.8808 51.362 40.2676 49.9752 40.2676 48.2645C40.2676 46.5538 38.8808 45.167 37.1701 45.167C35.4594 45.167 34.0726 46.5538 34.0726 48.2645C34.0726 49.9752 35.4594 51.362 37.1701 51.362Z" fill="#757575"/>
<path d="M73.778 11.712C62.1406 18.1626 57.9363 32.8257 64.387 44.463L65.3212 46.1487L74.4241 41.1029C81.9647 36.9229 84.6892 27.4213 80.5095 19.8803L76.3985 12.4633C75.8824 11.5323 74.7091 11.196 73.778 11.712Z" fill="#C4C4C4"/>
<path d="M99.0065 57.2256C87.3692 63.6762 72.7062 59.4716 66.256 47.8344L65.3212 46.1487L74.4241 41.103C81.9647 36.923 91.4666 39.6476 95.647 47.1884L99.758 54.6055C100.274 55.5365 99.9377 56.7095 99.0065 57.2256Z" fill="#C4C4C4"/>
</svg>
