<svg width="407" height="101" viewBox="0 0 407 101" fill="none" xmlns="http://www.w3.org/2000/svg">
<g clip-path="url(#clip0_1413_4124)">
<path d="M0.359863 60.8052C0.359863 38.606 18.3558 20.6102 40.5549 20.6102H47.0627C74.5472 20.6102 96.8276 42.8909 96.8276 70.3754C96.8276 87.2894 83.1171 101 66.2031 101H40.5549C18.3558 101 0.359863 83.0046 0.359863 60.8052Z" fill="#545454"/>
<path fill-rule="evenodd" clip-rule="evenodd" d="M2.2 48.7467C1.0044 52.5534 0.359863 56.604 0.359863 60.8052C0.359863 83.0046 18.3558 101 40.5549 101H48.5939V80.9024C48.5939 63.1434 34.1972 48.7467 16.4379 48.7467H2.2Z" fill="#A3A3A3"/>
<path d="M48.594 52.7662C50.8139 52.7662 52.6134 50.9666 52.6134 48.7467C52.6134 46.5268 50.8139 44.7272 48.594 44.7272C46.3741 44.7272 44.5745 46.5268 44.5745 48.7467C44.5745 50.9666 46.3741 52.7662 48.594 52.7662Z" fill="#A3A3A3"/>
<path d="M96.0984 1.31401C80.9972 9.68468 75.5414 28.7124 83.9121 43.8136L85.1244 46.001L96.9369 39.4533C106.722 34.0291 110.258 21.6993 104.834 11.9137L99.4989 2.28894C98.8293 1.08082 97.3066 0.644421 96.0984 1.31401Z" fill="#545454"/>
<path d="M128.836 60.3752C113.735 68.7459 94.7077 63.2897 86.3376 48.1886L85.1245 46.0012L96.937 39.4536C106.722 34.0294 119.052 37.565 124.477 47.3504L129.812 56.9752C130.481 58.1833 130.045 59.7055 128.836 60.3752Z" fill="#545454"/>
<path fill-rule="evenodd" clip-rule="evenodd" d="M161.02 88.3286H163.687V85.6622V59.7605L164.305 58.7676L178.588 86.8705L179.329 88.3286H180.965H189.178H193.534L191.553 84.4493L172.085 46.3396L190.151 17.7601L192.738 13.669H187.899H179.579H178.108L177.323 14.9134L163.687 36.5433V16.3354V13.669H161.02H153.555H150.888V16.3354V85.6622V88.3286H153.555H161.02ZM161.02 58.9981L162.893 55.9901L164.54 53.3452L165.951 56.1229L180.965 85.6622H186.183H189.178L187.816 82.9958L169.02 46.1993L186.212 19.0018L187.899 16.3354H184.743H179.579L163.687 41.5432L161.02 45.7726V40.7729V19.0018V16.3354H158.354H156.22H153.555V19.0018V82.9958V85.6622H156.22H158.354H161.02V82.9958V58.9981ZM200.918 13.669H198.251V16.3354V72.3302C198.251 77.7526 199.681 82.3006 202.999 85.4599C206.292 88.5961 210.992 89.9285 216.596 89.9285C219.994 89.9285 223.147 89.0513 225.998 87.2909L226.015 87.2797C227.462 86.371 228.77 85.3143 229.941 84.1133L230.978 86.666L231.654 88.3286H233.449H236.649H239.314V85.6622V16.3354V13.669H236.649H229.182H226.516V16.3354V70.197C226.516 71.3914 225.821 73.0773 223.432 75.273C221.219 77.3072 218.962 78.1963 216.596 78.1963C213.819 78.1963 212.655 77.5294 212.186 76.9725C211.541 76.1047 211.051 74.6651 211.051 72.3302V16.3354V13.669H208.385H200.918ZM230.676 78.8363C230.119 79.7468 229.504 80.5945 228.831 81.3792C227.611 82.8001 226.199 84.0147 224.596 85.0223C222.179 86.5155 219.512 87.2621 216.596 87.2621C206.145 87.2621 200.918 82.2847 200.918 72.3302V19.0018V16.3354H203.585H205.718H208.385V19.0018V72.3302C208.385 75.0321 208.953 77.1297 210.091 78.6229C211.299 80.1161 213.468 80.8627 216.596 80.8627C219.725 80.8627 222.606 79.6541 225.236 77.2364C227.867 74.819 229.182 72.4726 229.182 70.197V19.0018V16.3354H231.849H233.982H236.649V19.0018V82.9958V85.6622H233.982H233.449L231.885 81.8157L230.676 78.8363ZM270.82 13.669H268.154V16.3354V73.8233C268.154 75.7589 267.672 76.7207 267.175 77.2174C266.678 77.7142 265.717 78.1963 263.78 78.1963C261.938 78.1963 261.04 77.7259 260.575 77.2465C260.096 76.7524 259.621 75.7789 259.621 73.8233V66.464V63.7976H256.955H249.489H246.823V66.464V73.3968C246.823 78.4286 248.21 82.6815 251.393 85.6824C254.522 88.6327 258.781 89.9285 263.78 89.9285C268.787 89.9285 273.06 88.6307 276.248 85.7082C279.517 82.7121 280.952 78.4501 280.952 73.3968V16.3354V13.669H278.286H270.82ZM306.005 88.3286H308.67V85.6622V16.3354V13.669H306.005H298.538H295.872V16.3354V85.6622V88.3286H298.538H306.005ZM334.752 88.3286H337.419V85.6622V36.9201C337.419 32.0869 338.332 28.8172 339.792 26.7505C341.504 24.4352 342.965 23.8013 344.138 23.8013C345.541 23.8013 346.153 24.1992 346.489 24.6017C346.902 25.0974 347.338 26.1325 347.338 28.1743V35.5336V38.2H350.003H357.149H359.816V35.5336V28.6009C359.816 23.6236 358.682 19.3932 355.944 16.4015C353.164 13.3651 349.162 12.0691 344.457 12.0691C341.349 12.0691 338.568 13.078 336.252 15.0995C335.384 15.857 334.601 16.7383 333.897 17.7305L332.968 15.3625L332.305 13.669H330.485H327.287H324.62V16.3354V85.6622V88.3286H327.287H334.752ZM344.138 21.1349C341.792 21.1349 339.622 22.4859 337.631 25.1879C335.712 27.8899 334.752 31.8006 334.752 36.9201V82.9958V85.6622H332.085H329.952H327.287V82.9958V19.0018V16.3354H329.952H330.485L332.181 20.6617L333.579 24.228C334.033 22.9634 334.542 21.8254 335.105 20.8135C337.356 16.7615 340.475 14.7355 344.457 14.7355C352.919 14.7355 357.149 19.3574 357.149 28.6009V32.8672V35.5336H354.483H352.67H350.003V32.8672V28.1743C350.003 23.4813 348.049 21.1349 344.138 21.1349ZM403.054 88.3286H405.721V85.6622V29.6675C405.721 24.3387 404.069 19.8785 400.467 16.701C396.942 13.4572 391.918 12.0691 385.882 12.0691C379.833 12.0691 374.798 13.4639 371.273 16.7244C367.817 19.9146 366.258 24.3685 366.258 29.6675V35.5336V38.2H368.923H376.39H379.057V35.5336V29.2409C379.057 27.0696 379.672 25.8913 380.494 25.1892C381.398 24.4181 383.035 23.8013 385.882 23.8013C388.737 23.8013 390.421 24.4416 391.386 25.2802C392.332 26.103 392.922 27.299 392.922 29.2409V44.0661H383.215C377.703 44.0661 373.077 45.4053 369.838 48.5538C366.586 51.7158 365.191 56.2567 365.191 61.6645V72.3302C365.191 77.7379 366.586 82.2788 369.838 85.441C373.077 88.5895 377.703 89.9285 383.215 89.9285C386.613 89.9285 389.766 89.0513 392.616 87.2909L392.64 87.2762L392.664 87.2611C394.031 86.3755 395.271 85.3508 396.379 84.1909L397.383 86.666L398.059 88.3286H399.854H403.054ZM385.882 14.7355C391.57 14.7355 395.837 16.051 398.681 18.6818C401.597 21.2416 403.054 24.9034 403.054 29.6675V82.9958V85.6622H400.387H399.854L398.306 81.8524L397.081 78.8363C396.536 79.7706 395.929 80.6387 395.26 81.4405C394.099 82.835 392.749 84.0291 391.214 85.0223C388.798 86.5155 386.131 87.2621 383.215 87.2621C372.977 87.2621 367.856 82.2847 367.856 72.3302V61.6645C367.856 51.7099 372.977 46.7325 383.215 46.7325H392.922H395.587V44.0661V29.2409C395.587 26.6811 394.77 24.6901 393.135 23.2681C391.5 21.8459 389.082 21.1349 385.882 21.1349C379.554 21.1349 376.39 23.8369 376.39 29.2409V32.8672V35.5336H373.723H371.59H368.923V32.8672V29.6675C368.923 24.9034 370.31 21.2416 373.083 18.6818C375.928 16.051 380.193 14.7355 385.882 14.7355ZM383.215 55.7983H392.922V70.4227C392.816 71.7117 392.006 73.3968 389.748 75.4702C387.606 77.3699 385.449 78.1963 383.215 78.1963C380.566 78.1963 379.544 77.5244 379.15 77.0071C378.492 76.1429 377.99 74.6966 377.99 72.3302V61.6645C377.99 59.2984 378.492 57.8517 379.15 56.9876C379.544 56.4702 380.566 55.7983 383.215 55.7983ZM383.215 53.1319H392.922H395.587V55.7983V70.517C395.446 72.7923 394.095 75.1032 391.535 77.4497C388.975 79.7252 386.201 80.8627 383.215 80.8627C380.23 80.8627 378.168 80.1161 377.03 78.6229C375.892 77.1297 375.323 75.0321 375.323 72.3302V61.6645C375.323 58.9627 375.892 56.8649 377.03 55.3718C378.168 53.8786 380.23 53.1319 383.215 53.1319ZM270.82 16.3354H273.487H275.62H278.286V19.0018V73.3968C278.286 77.9475 277.006 81.396 274.446 83.7425C271.887 86.0889 268.331 87.2621 263.78 87.2621C259.23 87.2621 255.71 86.0889 253.221 83.7425C250.734 81.396 249.489 77.9475 249.489 73.3968V69.1304V66.464H252.155H254.288H256.955V69.1304V73.8233C256.955 78.5163 259.23 80.8627 263.78 80.8627C268.474 80.8627 270.82 78.5163 270.82 73.8233V19.0018V16.3354ZM306.005 85.6622H303.338H301.205H298.538V82.9958V19.0018V16.3354H301.205H303.338H306.005V19.0018V82.9958V85.6622Z" fill="#A3A3A3"/>
</g>
<defs>
<clipPath id="clip0_1413_4124">
<rect width="405.36" height="100" fill="white" transform="translate(0.799805 0.553223)"/>
</clipPath>
</defs>
</svg>
