<svg width="100" height="31" viewBox="0 0 100 31" fill="none" xmlns="http://www.w3.org/2000/svg">
<path d="M3.9761 28.8791H1.04634V1.67413H3.9761V13.2258L11.2587 1.67413H14.5232L7.11513 13.3932L15.0255 28.8791H11.8028L5.35728 16.1974L3.9761 18.4156V28.8791ZM19.6326 23.6473V1.67413H22.5624V23.6473C22.5624 24.7076 22.7857 25.5308 23.2321 26.1167C23.7065 26.7027 24.5575 26.9956 25.7851 26.9956C27.0129 26.9956 28.143 26.5213 29.1753 25.5726C30.2077 24.6239 30.7239 23.7031 30.7239 22.8103V1.67413H33.6536V28.8791H32.398L31.3098 26.2004C30.6961 27.2049 29.9008 28.0141 28.9242 28.6279C27.9756 29.2139 26.9292 29.5069 25.7851 29.5069C21.6835 29.5069 19.6326 27.5537 19.6326 23.6473ZM47.0633 1.67413H49.993V24.0659C49.993 25.8517 49.4908 27.2049 48.4863 28.1257C47.4818 29.0465 46.0866 29.5069 44.3009 29.5069C42.5151 29.5069 41.134 29.0465 40.1574 28.1257C39.1808 27.2049 38.6925 25.8517 38.6925 24.0659V21.3454H41.6223V24.2333C41.6223 26.0749 42.5151 26.9956 44.3009 26.9956C46.1425 26.9956 47.0633 26.0749 47.0633 24.2333V1.67413ZM60.8701 28.8791H57.9403V1.67413H60.8701V28.8791ZM72.1509 28.8791H69.2212V1.67413H70.4768L71.6905 4.77131C72.5834 2.28799 74.0064 1.04633 75.9596 1.04633C79.28 1.04633 80.9402 2.85999 80.9402 6.48731V9.20781H78.136V6.3199C78.136 4.47833 77.3687 3.55755 75.8341 3.55755C74.9133 3.55755 74.0623 4.0877 73.281 5.14799C72.5276 6.20828 72.1509 7.74293 72.1509 9.75191V28.8791ZM98.9537 28.8791H97.698L96.6098 26.2004C96.0239 27.2049 95.2566 28.0141 94.3079 28.6279C93.3593 29.2139 92.3129 29.5069 91.1689 29.5069C87.1509 29.5069 85.1419 27.5537 85.1419 23.6473V19.462C85.1419 15.5557 87.1509 13.6024 91.1689 13.6024H96.0239V6.73844C96.0239 5.73395 95.7031 4.95267 95.0612 4.39463C94.4195 3.83658 93.4708 3.55755 92.2152 3.55755C89.7319 3.55755 88.4902 4.61784 88.4902 6.73844V9.20781H85.5604V6.90585C85.5604 5.03638 86.1046 3.59941 87.1927 2.59492C88.3089 1.56252 89.983 1.04633 92.2152 1.04633C94.4475 1.04633 96.1216 1.56252 97.2376 2.59492C98.3817 3.59941 98.9537 5.03638 98.9537 6.90585V28.8791ZM96.0239 16.1137H91.1689C89.9969 16.1137 89.1878 16.4067 88.7413 16.9926C88.295 17.5786 88.0717 18.4017 88.0717 19.462V23.6473C88.0717 24.7076 88.295 25.5308 88.7413 26.1167C89.1878 26.7027 89.9969 26.9956 91.1689 26.9956C92.3408 26.9956 93.429 26.5492 94.4334 25.6563C95.4379 24.7355 95.9681 23.8287 96.0239 22.9358V16.1137Z" fill="#757575"/>
<path d="M3.97611 28.8791V29.9254H5.02245V28.8791H3.97611ZM1.04634 28.8791H0V29.9254H1.04634V28.8791ZM1.04634 1.67415V0.627806H0V1.67415H1.04634ZM3.97611 1.67415H5.02245V0.627806H3.97611V1.67415ZM3.97611 13.2258H2.92976V16.8475L4.86124 13.7838L3.97611 13.2258ZM11.2587 1.67415V0.627806H10.6814L10.3735 1.11613L11.2587 1.67415ZM14.5232 1.67415L15.4077 2.23324L16.4226 0.627806H14.5232V1.67415ZM7.11514 13.3932L6.23069 12.8341L5.91206 13.3382L6.18333 13.8692L7.11514 13.3932ZM15.0255 28.8791V29.9254H16.7349L15.9573 28.4031L15.0255 28.8791ZM11.8028 28.8791L10.87 29.3532L11.1608 29.9254H11.8028V28.8791ZM5.35728 16.1974L6.29006 15.7233L5.44956 14.0696L4.46904 15.6443L5.35728 16.1974ZM3.97611 18.4156L3.08786 17.8625L2.92976 18.1165V18.4156H3.97611ZM3.97611 27.8327H1.04634V29.9254H3.97611V27.8327ZM2.09269 28.8791V1.67415H0V28.8791H2.09269ZM1.04634 2.72049H3.97611V0.627806H1.04634V2.72049ZM2.92976 1.67415V13.2258H5.02245V1.67415H2.92976ZM4.86124 13.7838L12.1438 2.23217L10.3735 1.11613L3.09097 12.6678L4.86124 13.7838ZM11.2587 2.72049H14.5232V0.627806H11.2587V2.72049ZM13.6388 1.11505L6.23069 12.8341L7.99958 13.9523L15.4077 2.23324L13.6388 1.11505ZM6.18333 13.8692L14.0937 29.3551L15.9573 28.4031L8.04695 12.9172L6.18333 13.8692ZM15.0255 27.8327H11.8028V29.9254H15.0255V27.8327ZM12.7356 28.405L6.29006 15.7233L4.4245 16.6715L10.87 29.3532L12.7356 28.405ZM4.46904 15.6443L3.08786 17.8625L4.86435 18.9687L6.24552 16.7505L4.46904 15.6443ZM2.92976 18.4156V28.8791H5.02245V18.4156H2.92976ZM19.6326 1.67415V0.627806H18.5863V1.67415H19.6326ZM22.5624 1.67415H23.6088V0.627806H22.5624V1.67415ZM23.2321 26.1167L22.3998 26.7508L22.4091 26.7632L22.4189 26.7751L23.2321 26.1167ZM29.1753 25.5726L28.4673 24.8022L29.1753 25.5726ZM30.7239 1.67415V0.627806H29.6775V1.67415H30.7239ZM33.6537 1.67415H34.7V0.627806H33.6537V1.67415ZM33.6537 28.8791V29.9254H34.7V28.8791H33.6537ZM32.398 28.8791L31.4287 29.2729L31.6937 29.9254H32.398V28.8791ZM31.3098 26.2004L32.2793 25.8066L31.4986 23.885L30.417 25.6548L31.3098 26.2004ZM28.9242 28.628L29.474 29.5182L29.481 29.5138L28.9242 28.628ZM20.679 23.6474V1.67415H18.5863V23.6474H20.679ZM19.6326 2.72049H22.5624V0.627806H19.6326V2.72049ZM21.5161 1.67415V23.6474H23.6088V1.67415H21.5161ZM21.5161 23.6474C21.5161 24.8394 21.7652 25.918 22.3998 26.7508L24.0644 25.4827C23.8061 25.1435 23.6088 24.576 23.6088 23.6474H21.5161ZM22.4189 26.7751C23.189 27.7264 24.4378 28.042 25.7851 28.042V25.9493C24.6772 25.9493 24.2239 25.6789 24.0454 25.4584L22.4189 26.7751ZM25.7851 28.042C27.3125 28.042 28.6873 27.4421 29.8834 26.3431L28.4673 24.8022C27.5986 25.6005 26.7133 25.9493 25.7851 25.9493V28.042ZM29.8834 26.3431C31.0105 25.3073 31.7702 24.1274 31.7702 22.8103H29.6775C29.6775 23.2789 29.405 23.9406 28.4673 24.8022L29.8834 26.3431ZM31.7702 22.8103V1.67415H29.6775V22.8103H31.7702ZM30.7239 2.72049H33.6537V0.627806H30.7239V2.72049ZM32.6073 1.67415V28.8791H34.7V1.67415H32.6073ZM33.6537 27.8327H32.398V29.9254H33.6537V27.8327ZM33.3675 28.4852L32.2793 25.8066L30.3405 26.5943L31.4287 29.2729L33.3675 28.4852ZM30.417 25.6548C29.8857 26.5244 29.2043 27.216 28.3674 27.7421L29.481 29.5138C30.5973 28.8122 31.5065 27.8855 32.2027 26.7461L30.417 25.6548ZM28.3743 27.7377C27.5954 28.2188 26.7402 28.4605 25.7851 28.4605V30.5532C27.1181 30.5532 28.3557 30.209 29.474 29.5182L28.3743 27.7377ZM25.7851 28.4605C23.8832 28.4605 22.651 28.0069 21.8924 27.2844C21.1434 26.5709 20.679 25.4258 20.679 23.6474H18.5863C18.5863 25.7752 19.1475 27.56 20.4492 28.7997C21.7413 30.0304 23.5854 30.5532 25.7851 30.5532V28.4605ZM47.0633 1.67415V0.627806H46.0169V1.67415H47.0633ZM49.993 1.67415H51.0394V0.627806H49.993V1.67415ZM48.4863 28.1257L47.7792 27.3544L48.4863 28.1257ZM40.1574 28.1257L40.8752 27.3644L40.1574 28.1257ZM38.6925 21.3454V20.2991H37.6462V21.3454H38.6925ZM41.6223 21.3454H42.6686V20.2991H41.6223V21.3454ZM47.0633 2.72049H49.993V0.627806H47.0633V2.72049ZM48.9467 1.67415V24.0659H51.0394V1.67415H48.9467ZM48.9467 24.0659C48.9467 25.6544 48.5057 26.6885 47.7792 27.3544L49.1933 28.8971C50.4758 27.7214 51.0394 26.0489 51.0394 24.0659H48.9467ZM47.7792 27.3544C47.0214 28.049 45.9082 28.4605 44.3009 28.4605V30.5532C46.265 30.5532 47.9421 30.044 49.1933 28.8971L47.7792 27.3544ZM44.3009 28.4605C42.6917 28.4605 41.6005 28.0483 40.8752 27.3644L39.4395 28.887C40.6674 30.0447 42.3386 30.5532 44.3009 30.5532V28.4605ZM40.8752 27.3644C40.171 26.7005 39.7389 25.6628 39.7389 24.0659H37.6462C37.6462 26.0405 38.1905 27.7094 39.4395 28.887L40.8752 27.3644ZM39.7389 24.0659V21.3454H37.6462V24.0659H39.7389ZM38.6925 22.3918H41.6223V20.2991H38.6925V22.3918ZM40.576 21.3454V24.2333H42.6686V21.3454H40.576ZM40.576 24.2333C40.576 25.3075 40.836 26.3068 41.5407 27.0334C42.2512 27.7662 43.2384 28.042 44.3009 28.042V25.9493C43.5776 25.9493 43.2254 25.7647 43.0431 25.5767C42.855 25.3826 42.6686 25.0007 42.6686 24.2333H40.576ZM44.3009 28.042C45.383 28.042 46.3867 27.7708 47.1126 27.0449C47.8383 26.3191 48.1096 25.3153 48.1096 24.2333H46.0169C46.0169 24.9929 45.8278 25.3703 45.6327 25.5652C45.4378 25.7601 45.0604 25.9493 44.3009 25.9493V28.042ZM48.1096 24.2333V1.67415H46.0169V24.2333H48.1096ZM60.8701 28.8791V29.9254H61.9164V28.8791H60.8701ZM57.9403 28.8791H56.894V29.9254H57.9403V28.8791ZM57.9403 1.67415V0.627806H56.894V1.67415H57.9403ZM60.8701 1.67415H61.9164V0.627806H60.8701V1.67415ZM60.8701 27.8327H57.9403V29.9254H60.8701V27.8327ZM58.9867 28.8791V1.67415H56.894V28.8791H58.9867ZM57.9403 2.72049H60.8701V0.627806H57.9403V2.72049ZM59.8237 1.67415V28.8791H61.9164V1.67415H59.8237ZM72.1509 28.8791V29.9254H73.1973V28.8791H72.1509ZM69.2212 28.8791H68.1748V29.9254H69.2212V28.8791ZM69.2212 1.67415V0.627806H68.1748V1.67415H69.2212ZM70.4768 1.67415L71.451 1.29237L71.1906 0.627806H70.4768V1.67415ZM71.6905 4.77133L70.7164 5.15311L71.7327 7.7466L72.6751 5.12535L71.6905 4.77133ZM80.9402 9.20782V10.2542H81.9866V9.20782H80.9402ZM78.136 9.20782H77.0897V10.2542H78.136V9.20782ZM73.281 5.14801L72.4387 4.52732L72.4332 4.53459L72.428 4.54196L73.281 5.14801ZM72.1509 27.8327H69.2212V29.9254H72.1509V27.8327ZM70.2675 28.8791V1.67415H68.1748V28.8791H70.2675ZM69.2212 2.72049H70.4768V0.627806H69.2212V2.72049ZM69.5026 2.05593L70.7164 5.15311L72.6648 4.38954L71.451 1.29237L69.5026 2.05593ZM72.6751 5.12535C73.0841 3.98822 73.581 3.23228 74.1154 2.766C74.6293 2.3176 75.2266 2.09269 75.9596 2.09269V0C74.7396 0 73.6487 0.395922 72.7396 1.18918C71.8509 1.96455 71.19 3.0711 70.7059 4.4173L72.6751 5.12535ZM75.9596 2.09269C77.4336 2.09269 78.3538 2.49096 78.9233 3.11309C79.5088 3.75274 79.8939 4.81317 79.8939 6.48733H81.9866C81.9866 4.53417 81.5416 2.8741 80.4669 1.70009C79.3761 0.508555 77.8061 0 75.9596 0V2.09269ZM79.8939 6.48733V9.20782H81.9866V6.48733H79.8939ZM80.9402 8.16148H78.136V10.2542H80.9402V8.16148ZM79.1824 9.20782V6.31992H77.0897V9.20782H79.1824ZM79.1824 6.31992C79.1824 5.2796 78.9696 4.30457 78.3643 3.5783C77.7287 2.81549 76.8179 2.51123 75.8341 2.51123V4.60391C76.3849 4.60391 76.6251 4.76004 76.7567 4.918C76.9188 5.11252 77.0897 5.51867 77.0897 6.31992H79.1824ZM75.8341 2.51123C74.4538 2.51123 73.3272 3.32143 72.4387 4.52732L74.1234 5.7687C74.7973 4.854 75.3727 4.60391 75.8341 4.60391V2.51123ZM72.428 4.54196C71.4973 5.85194 71.1046 7.63619 71.1046 9.75192H73.1973C73.1973 7.8497 73.558 6.56467 74.134 5.75406L72.428 4.54196ZM71.1046 9.75192V28.8791H73.1973V9.75192H71.1046ZM98.9537 28.8791V29.9254H100V28.8791H98.9537ZM97.698 28.8791L96.7287 29.2729L96.9937 29.9254H97.698V28.8791ZM96.6098 26.2004L97.5793 25.8066L96.7783 23.8351L95.7061 25.6732L96.6098 26.2004ZM94.3079 28.628L94.8577 29.5182L94.8672 29.5124L94.8764 29.5065L94.3079 28.628ZM96.0239 13.6025V14.6488H97.0702V13.6025H96.0239ZM95.0613 4.39464L95.7479 3.60506L95.0613 4.39464ZM88.4902 9.20782V10.2542H89.5366V9.20782H88.4902ZM85.5605 9.20782H84.5141V10.2542H85.5605V9.20782ZM87.1928 2.59493L87.9025 3.36379L87.9033 3.36305L87.1928 2.59493ZM97.2376 2.59493L96.5272 3.36305L96.5371 3.37225L96.5473 3.3812L97.2376 2.59493ZM96.0239 16.1137H97.0702V15.0673H96.0239V16.1137ZM88.7413 26.1167L87.9091 26.7508L88.7413 26.1167ZM94.4334 25.6563L95.1286 26.4384L95.1346 26.433L95.1406 26.4277L94.4334 25.6563ZM96.0239 22.9359L97.0682 23.0011L97.0702 22.9685V22.9359H96.0239ZM98.9537 27.8327H97.698V29.9254H98.9537V27.8327ZM98.6675 28.4852L97.5793 25.8066L95.6405 26.5943L96.7287 29.2729L98.6675 28.4852ZM95.7061 25.6732C95.2003 26.5402 94.5462 27.2274 93.7395 27.7495L94.8764 29.5065C95.967 28.8008 96.8476 27.8697 97.5137 26.7277L95.7061 25.6732ZM93.758 27.7377C92.9791 28.2188 92.124 28.4605 91.1689 28.4605V30.5532C92.5018 30.5532 93.7394 30.209 94.8577 29.5182L93.758 27.7377ZM91.1689 28.4605C89.3139 28.4605 88.1162 28.0095 87.3781 27.2918C86.6454 26.5794 86.1883 25.4317 86.1883 23.6474H84.0956C84.0956 25.7695 84.643 27.5514 85.9193 28.7922C87.1901 30.0278 89.0059 30.5532 91.1689 30.5532V28.4605ZM86.1883 23.6474V19.462H84.0956V23.6474H86.1883ZM86.1883 19.462C86.1883 17.6777 86.6454 16.5299 87.3781 15.8176C88.1162 15.0999 89.3139 14.6488 91.1689 14.6488V12.5561C89.0059 12.5561 87.1901 13.0816 85.9193 14.3171C84.643 15.558 84.0956 17.3399 84.0956 19.462H86.1883ZM91.1689 14.6488H96.0239V12.5561H91.1689V14.6488ZM97.0702 13.6025V6.73845H94.9775V13.6025H97.0702ZM97.0702 6.73845C97.0702 5.49148 96.6601 4.3983 95.7479 3.60506L94.3747 5.18421C94.746 5.50708 94.9775 5.97644 94.9775 6.73845H97.0702ZM95.7479 3.60506C94.8428 2.81805 93.606 2.51123 92.2152 2.51123V4.60391C93.3356 4.60391 93.9963 4.85515 94.3747 5.18421L95.7479 3.60506ZM92.2152 2.51123C90.8492 2.51123 89.6294 2.79936 88.7421 3.55709C87.8231 4.34182 87.4439 5.46989 87.4439 6.73845H89.5366C89.5366 5.88643 89.7783 5.42405 90.101 5.14849C90.4552 4.84593 91.098 4.60391 92.2152 4.60391V2.51123ZM87.4439 6.73845V9.20782H89.5366V6.73845H87.4439ZM88.4902 8.16148H85.5605V10.2542H88.4902V8.16148ZM86.6068 9.20782V6.90587H84.5141V9.20782H86.6068ZM86.6068 6.90587C86.6068 5.24673 87.0824 4.12086 87.9025 3.36379L86.4831 1.82608C85.1269 3.07799 84.5141 4.82607 84.5141 6.90587H86.6068ZM87.9033 3.36305C88.7522 2.57775 90.1249 2.09269 92.2152 2.09269V0C89.8411 0 87.8656 0.547324 86.4823 1.82681L87.9033 3.36305ZM92.2152 2.09269C94.3055 2.09269 95.6782 2.57775 96.5272 3.36305L97.9482 1.82681C96.565 0.547324 94.5893 0 92.2152 0V2.09269ZM96.5473 3.3812C97.4145 4.14265 97.9073 5.263 97.9073 6.90587H100C100 4.80979 99.3489 3.05619 97.928 1.80867L96.5473 3.3812ZM97.9073 6.90587V28.8791H100V6.90587H97.9073ZM96.0239 15.0673H91.1689V17.16H96.0239V15.0673ZM91.1689 15.0673C89.865 15.0673 88.6473 15.3896 87.9091 16.3585L89.5737 17.6267C89.7284 17.4237 90.129 17.16 91.1689 17.16V15.0673ZM87.9091 16.3585C87.2745 17.1913 87.0253 18.27 87.0253 19.462H89.118C89.118 18.5334 89.3154 17.9658 89.5737 17.6267L87.9091 16.3585ZM87.0253 19.462V23.6474H89.118V19.462H87.0253ZM87.0253 23.6474C87.0253 24.8394 87.2745 25.918 87.9091 26.7508L89.5737 25.4827C89.3154 25.1435 89.118 24.576 89.118 23.6474H87.0253ZM87.9091 26.7508C88.6473 27.7197 89.865 28.042 91.1689 28.042V25.9493C90.129 25.9493 89.7284 25.6856 89.5737 25.4827L87.9091 26.7508ZM91.1689 28.042C92.6346 28.042 93.9626 27.4749 95.1286 26.4384L93.7384 24.8743C92.8954 25.6236 92.0471 25.9493 91.1689 25.9493V28.042ZM95.1406 26.4277C96.2426 25.4175 96.9885 24.2762 97.0682 23.0011L94.9796 22.8706C94.9477 23.3813 94.6334 24.0537 93.7264 24.885L95.1406 26.4277ZM97.0702 22.9359V16.1137H94.9775V22.9359H97.0702Z" fill="#757575"/>
</svg>
