<svg width="91" height="101" viewBox="0 0 91 101" fill="none" xmlns="http://www.w3.org/2000/svg">
<g clip-path="url(#clip0_1413_4187)">
<path d="M8.00781 35.6014C8.00781 22.7576 18.4197 12.3458 31.2634 12.3458H35.0286C50.9304 12.3458 63.8211 25.2367 63.8211 41.1384C63.8211 50.9244 55.8886 58.8569 46.1027 58.8569H31.2634C18.4197 58.8569 8.00781 48.4453 8.00781 35.6014Z" fill="#545454"/>
<path fill-rule="evenodd" clip-rule="evenodd" d="M9.0725 28.6248C8.38073 30.8272 8.00781 33.1708 8.00781 35.6014C8.00781 48.4453 18.4197 58.8569 31.2634 58.8569H35.9146V47.229C35.9146 36.9543 27.5851 28.6248 17.3101 28.6248H9.0725Z" fill="#A3A3A3"/>
<path d="M35.9147 30.9503C37.199 30.9503 38.2402 29.9091 38.2402 28.6247C38.2402 27.3404 37.199 26.2992 35.9147 26.2992C34.6303 26.2992 33.5891 27.3404 33.5891 28.6247C33.5891 29.9091 34.6303 30.9503 35.9147 30.9503Z" fill="#A3A3A3"/>
<path d="M63.3992 1.18168C54.6621 6.02469 51.5055 17.0335 56.3486 25.7706L57.05 27.0362L63.8843 23.2479C69.5457 20.1096 71.5913 12.976 68.4532 7.31431L65.3667 1.74574C64.9792 1.04676 64.0983 0.794273 63.3992 1.18168Z" fill="#545454"/>
<path d="M82.3403 35.3525C73.6033 40.1956 62.5945 37.0388 57.7518 28.3018L57.0499 27.0362L63.8843 23.2479C69.5456 20.1097 76.6794 22.1553 79.8185 27.8168L82.9049 33.3854C83.2923 34.0844 83.0393 34.9651 82.3403 35.3525Z" fill="#545454"/>
<path fill-rule="evenodd" clip-rule="evenodd" d="M4.08229 100.434H5.02498V99.4917V90.3344L5.24351 89.983L10.2932 99.9189L10.5553 100.434H11.1336H14.0371H15.5772L14.8766 99.063L7.99422 85.5894L14.3814 75.4854L15.2958 74.0386H13.5846H10.6434H10.1234L9.84603 74.4786L5.02498 82.1261V74.9816V74.0386H4.08229H1.44269H0.5V74.9816V99.4917V100.434H1.44269H4.08229ZM4.08229 90.0649L4.74443 89.001L5.32659 88.0663L5.82572 89.0483L11.1336 99.4917H12.9786H14.0371L13.5555 98.5487L6.91037 85.5399L12.9887 75.9246L13.5846 74.9816H12.4693H10.6434L5.02498 83.8934L4.08229 85.389V83.6216V75.9246V74.9816H3.13959H2.38539H1.44269V75.9246V98.5487V99.4917H2.38539H3.13959H4.08229V98.5487V90.0649ZM18.1879 74.0386H17.2452V74.9816V94.7783C17.2452 96.695 17.7507 98.3032 18.9235 99.4204C20.0877 100.529 21.7491 101 23.731 101C24.9319 101 26.0468 100.69 27.0544 100.068L27.0607 100.064C27.5718 99.7425 28.0347 99.3686 28.4488 98.9436L28.8154 99.8461L29.0543 100.434H29.6887H30.82H31.7627V99.4917V74.9816V74.0386H30.82H28.1805H27.2377V74.9816V94.0237C27.2377 94.4464 26.9922 95.0426 26.1474 95.8189C25.3648 96.5381 24.5671 96.852 23.731 96.852C22.7487 96.852 22.3377 96.6162 22.1714 96.4195C21.9432 96.1124 21.7701 95.6034 21.7701 94.7783V74.9816V74.0386H20.8275H18.1879ZM28.7084 97.0787C28.5117 97.4 28.2942 97.6996 28.0561 97.9774C27.6249 98.4797 27.1259 98.9091 26.559 99.2657C25.7044 99.7935 24.7617 100.057 23.731 100.057C20.0356 100.057 18.1879 98.2972 18.1879 94.7783V75.9246V74.9816H19.1306H19.8848H20.8275V75.9246V94.7783C20.8275 95.7333 21.0285 96.4751 21.4308 97.0029C21.8582 97.5307 22.6248 97.7949 23.731 97.7949C24.837 97.7949 25.8551 97.3677 26.7852 96.5126C27.7155 95.6582 28.1805 94.8286 28.1805 94.0237V75.9246V74.9816H29.1232H29.8773H30.82V75.9246V98.5487V99.4917H29.8773H29.6887L29.1362 98.132L28.7084 97.0787ZM42.9012 74.0386H41.9585V74.9816V95.3061C41.9585 95.9901 41.7881 96.3302 41.6124 96.5058C41.4368 96.6815 41.0968 96.852 40.4125 96.852C39.7609 96.852 39.4436 96.686 39.2793 96.5164C39.1097 96.3414 38.9419 95.9976 38.9419 95.3061V92.7039V91.7616H37.9992H35.3597H34.417V92.7039V95.1552C34.417 96.9345 34.9075 98.4376 36.0327 99.4985C37.1389 100.542 38.6446 101 40.4125 101C42.1821 101 43.6931 100.541 44.8202 99.5075C45.9758 98.4489 46.4834 96.942 46.4834 95.1552V74.9816V74.0386H45.5407H42.9012ZM55.3404 100.434H56.283V99.4917V74.9816V74.0386H55.3404H52.7008H51.7581V74.9816V99.4917V100.434H52.7008H55.3404ZM65.5038 100.434H66.4465V99.4917V82.259C66.4465 80.5502 66.7696 79.3947 67.2858 78.6634C67.8909 77.8451 68.4075 77.6214 68.8221 77.6214C69.3183 77.6214 69.5348 77.7617 69.6533 77.9044C69.7994 78.0793 69.9533 78.445 69.9533 79.1672V81.7687V82.7117H70.896H73.4224H74.3651V81.7687V79.3181C74.3651 77.5583 73.9642 76.0627 72.996 75.0049C72.0133 73.9312 70.5987 73.4733 68.9352 73.4733C67.836 73.4733 66.8532 73.8299 66.0341 74.5446C65.7272 74.8127 65.4504 75.1242 65.2013 75.4749L64.8731 74.6377L64.6385 74.0386H63.9955H62.8643H61.9216V74.9816V99.4917V100.434H62.8643H65.5038ZM68.8221 76.6784C67.9925 76.6784 67.2257 77.1559 66.5219 78.1116C65.8432 79.0666 65.5038 80.4496 65.5038 82.259V98.5487V99.4917H64.5611H63.807H62.8643V98.5487V75.9246V74.9816H63.807H63.9955L64.595 76.5109L65.089 77.7723C65.2497 77.3248 65.4295 76.9224 65.6284 76.565C66.4248 75.1325 67.5271 74.4162 68.9352 74.4162C71.9266 74.4162 73.4224 76.05 73.4224 79.3181V80.8265V81.7687H72.4797H71.8387H70.896V80.8265V79.1672C70.896 77.508 70.2047 76.6784 68.8221 76.6784ZM89.6515 100.434H90.5945V99.4917V79.695C90.5945 77.8113 90.0104 76.2339 88.7363 75.1107C87.4908 73.9643 85.7144 73.4733 83.5807 73.4733C81.4417 73.4733 79.6616 73.9665 78.4153 75.119C77.1937 76.2467 76.6419 77.8218 76.6419 79.695V81.7687V82.7117H77.5849H80.2247H81.1669V81.7687V79.5441C81.1669 78.7768 81.3846 78.3601 81.6759 78.1116C81.995 77.8391 82.5739 77.6214 83.5807 77.6214C84.5897 77.6214 85.1851 77.8473 85.526 78.1439C85.8608 78.4352 86.0695 78.8579 86.0695 79.5441V84.7853H82.6377C80.6894 84.7853 79.0535 85.2591 77.9085 86.3725C76.7583 87.4904 76.265 89.0956 76.265 91.0071V94.7783C76.265 96.6898 76.7583 98.2957 77.9085 99.4136C79.0535 100.526 80.6894 101 82.6377 101C83.839 101 84.9539 100.69 85.9614 100.068L85.9697 100.062L85.9779 100.057C86.4622 99.744 86.8999 99.3814 87.2918 98.9714L87.6469 99.8461L87.8857 100.434H88.5201H89.6515ZM83.5807 74.4162C85.5913 74.4162 87.0996 74.881 88.1057 75.8112C89.1365 76.7159 89.6515 78.011 89.6515 79.695V98.5487V99.4917H88.7085H88.5201L87.9728 98.1448L87.5396 97.0787C87.3474 97.4083 87.1326 97.7154 86.8961 97.9992C86.4855 98.4924 86.0087 98.9144 85.4659 99.2657C84.6115 99.7935 83.6685 100.057 82.6377 100.057C79.0182 100.057 77.208 98.2972 77.208 94.7783V91.0071C77.208 87.4882 79.0182 85.7283 82.6377 85.7283H86.0695H87.0118V84.7853V79.5441C87.0118 78.6394 86.7227 77.9352 86.1446 77.4329C85.5665 76.9299 84.7121 76.6784 83.5807 76.6784C81.3433 76.6784 80.2247 77.6334 80.2247 79.5441V80.8265V81.7687H79.2817H78.5279H77.5849V80.8265V79.695C77.5849 78.011 78.0752 76.7159 79.0557 75.8112C80.061 74.881 81.5693 74.4162 83.5807 74.4162ZM82.6377 88.9334H86.0695V94.1041C86.032 94.5598 85.7452 95.1552 84.9471 95.8879C84.1896 96.5599 83.4275 96.852 82.6377 96.852C81.7007 96.852 81.3403 96.6147 81.2007 96.4315C80.9679 96.1259 80.79 95.6147 80.79 94.7783V91.0071C80.79 90.1707 80.9679 89.6594 81.2007 89.3539C81.3403 89.1707 81.7007 88.9334 82.6377 88.9334ZM82.6377 87.9904H86.0695H87.0118V88.9334V94.1371C86.9615 94.9412 86.484 95.7588 85.5793 96.5884C84.6738 97.3925 83.6933 97.7949 82.6377 97.7949C81.5821 97.7949 80.8531 97.5307 80.4507 97.0029C80.0482 96.4751 79.8478 95.7333 79.8478 94.7783V91.0071C79.8478 90.0521 80.0482 89.3103 80.4507 88.7825C80.8531 88.2547 81.5821 87.9904 82.6377 87.9904ZM42.9012 74.9816H43.8439H44.5981H45.5407V75.9246V95.1552C45.5407 96.7641 45.0882 97.9834 44.1833 98.813C43.2783 99.6426 42.0214 100.057 40.4125 100.057C38.8036 100.057 37.5593 99.6426 36.6794 98.813C35.7996 97.9834 35.3597 96.7641 35.3597 95.1552V93.6468V92.7039H36.3023H37.0565H37.9992V93.6468V95.3061C37.9992 96.9653 38.8036 97.7949 40.4125 97.7949C42.0716 97.7949 42.9012 96.9653 42.9012 95.3061V75.9246V74.9816ZM55.3404 99.4917H54.3976H53.6435H52.7008V98.5487V75.9246V74.9816H53.6435H54.3976H55.3404V75.9246V98.5487V99.4917Z" fill="#A3A3A3"/>
</g>
<defs>
<clipPath id="clip0_1413_4187">
<rect width="90.09" height="100" fill="white" transform="translate(0.454956 0.553223)"/>
</clipPath>
</defs>
</svg>
