<svg width="92" height="101" viewBox="0 0 92 101" fill="none" xmlns="http://www.w3.org/2000/svg">
<g clip-path="url(#clip0_1413_4155)">
<path d="M8.50781 35.6015C8.50781 22.7578 18.9197 12.3459 31.7634 12.3459H35.5286C51.4304 12.3459 64.3211 25.2368 64.3211 41.1385C64.3211 50.9245 56.3886 58.857 46.6027 58.857H31.7634C18.9197 58.857 8.50781 48.4454 8.50781 35.6015Z" fill="#545454"/>
<path fill-rule="evenodd" clip-rule="evenodd" d="M9.5725 28.6246C8.88073 30.8271 8.50781 33.1706 8.50781 35.6013C8.50781 48.4452 18.9197 58.8568 31.7634 58.8568H36.4146V47.2289C36.4146 36.9541 28.085 28.6246 17.8101 28.6246H9.5725Z" fill="#A3A3A3"/>
<path d="M36.4146 30.9503C37.699 30.9503 38.7402 29.9091 38.7402 28.6247C38.7402 27.3404 37.699 26.2992 36.4146 26.2992C35.1302 26.2992 34.0891 27.3404 34.0891 28.6247C34.0891 29.9091 35.1302 30.9503 36.4146 30.9503Z" fill="#A3A3A3"/>
<path d="M63.8992 1.18168C55.1621 6.02469 52.0055 17.0335 56.8486 25.7706L57.55 27.0362L64.3843 23.2479C70.0457 20.1096 72.0913 12.976 68.9532 7.31431L65.8667 1.74574C65.4792 1.04676 64.5983 0.794273 63.8992 1.18168Z" fill="#545454"/>
<path d="M82.8404 35.3525C74.1034 40.1956 63.0946 37.0388 58.2518 28.3018L57.55 27.0362L64.3844 23.2479C70.0457 20.1097 77.1795 22.1553 80.3185 27.8168L83.405 33.3854C83.7924 34.0844 83.5394 34.9651 82.8404 35.3525Z" fill="#545454"/>
<path d="M4.58227 99.4916H1.94272V74.9815H4.58227V85.3889L11.1434 74.9815H14.0847L7.41035 85.5398L14.5371 99.4916H11.6337L5.82663 88.0662L4.58227 90.0647V99.4916ZM18.6879 94.7782V74.9815H21.3274V94.7782C21.3274 95.7332 21.5286 96.4749 21.9307 97.0027C22.3582 97.5305 23.1249 97.7948 24.2309 97.7948C25.3371 97.7948 26.3552 97.3676 27.2853 96.5125C28.2154 95.6581 28.6804 94.8285 28.6804 94.0236V74.9815H31.32V99.4916H30.1888L29.2084 97.0786C28.6554 97.9833 27.939 98.7123 27.059 99.2656C26.2044 99.7934 25.2617 100.057 24.2309 100.057C20.5356 100.057 18.6879 98.2971 18.6879 94.7782ZM43.4013 74.9815H46.0408V95.1551C46.0408 96.764 45.5883 97.9833 44.6833 98.8129C43.7784 99.6425 42.5214 100.057 40.9126 100.057C39.3037 100.057 38.0593 99.6425 37.1795 98.8129C36.2996 97.9833 35.8597 96.764 35.8597 95.1551V92.7038H38.4993V95.306C38.4993 96.9652 39.3037 97.7948 40.9126 97.7948C42.5717 97.7948 43.4013 96.9652 43.4013 95.306V74.9815ZM55.8405 99.4916H53.2009V74.9815H55.8405V99.4916ZM66.0038 99.4916H63.3643V74.9815H64.4955L65.589 77.7721C66.3934 75.5348 67.6755 74.4161 69.4352 74.4161C72.4266 74.4161 73.9224 76.0499 73.9224 79.318V81.7686H71.396V79.1671C71.396 77.5079 70.7047 76.6783 69.3221 76.6783C68.4925 76.6783 67.7258 77.1558 67.0219 78.1115C66.3432 79.0665 66.0038 80.4494 66.0038 82.2588V99.4916ZM90.1515 99.4916H89.0201L88.0396 97.0786C87.5118 97.9833 86.8203 98.7123 85.9659 99.2656C85.1115 99.7934 84.1685 100.057 83.1377 100.057C79.5182 100.057 77.708 98.2971 77.708 94.7782V91.007C77.708 87.4881 79.5182 85.7282 83.1377 85.7282H87.5118V79.544C87.5118 78.6393 87.2227 77.9351 86.6446 77.4328C86.0665 76.9298 85.2121 76.6783 84.0807 76.6783C81.8434 76.6783 80.7247 77.6333 80.7247 79.544V81.7686H78.0849V79.6949C78.0849 78.0109 78.5752 76.7158 79.5557 75.8111C80.561 74.8809 82.0693 74.4161 84.0807 74.4161C86.092 74.4161 87.6004 74.8809 88.6057 75.8111C89.6365 76.7158 90.1515 78.0109 90.1515 79.6949V99.4916ZM87.5118 87.9903H83.1377C82.0821 87.9903 81.3531 88.2546 80.9507 88.7824C80.549 89.3102 80.3478 90.052 80.3478 91.007V94.7782C80.3478 95.7332 80.549 96.4749 80.9507 97.0027C81.3531 97.5305 82.0821 97.7948 83.1377 97.7948C84.1933 97.7948 85.1738 97.3924 86.0793 96.5883C86.984 95.7587 87.4615 94.9411 87.5118 94.137V87.9903Z" fill="#A3A3A3"/>
<path d="M4.58224 99.4917V100.434H5.52494V99.4917H4.58224ZM1.94269 99.4917H1V100.434H1.94269V99.4917ZM1.94269 74.9816V74.0386H1V74.9816H1.94269ZM4.58224 74.9816H5.52494V74.0386H4.58224V74.9816ZM4.58224 85.389H3.63954V88.6519L5.37969 85.892L4.58224 85.389ZM11.1434 74.9816V74.0386H10.6233L10.346 74.4786L11.1434 74.9816ZM14.0846 74.9816L14.8814 75.4854L15.7958 74.0386H14.0846V74.9816ZM7.41032 85.5399L6.61349 85.0361L6.32642 85.4903L6.57082 85.9686L7.41032 85.5399ZM14.5371 99.4917V100.434H16.0771L15.3766 99.063L14.5371 99.4917ZM11.6336 99.4917L10.7932 99.9189L11.0552 100.434H11.6336V99.4917ZM5.82659 88.0663L6.66698 87.6391L5.90974 86.1488L5.02634 87.5678L5.82659 88.0663ZM4.58224 90.0649L3.78199 89.5663L3.63954 89.7953V90.0649H4.58224ZM4.58224 98.5487H1.94269V100.434H4.58224V98.5487ZM2.88539 99.4917V74.9816H1V99.4917H2.88539ZM1.94269 75.9246H4.58224V74.0386H1.94269V75.9246ZM3.63954 74.9816V85.389H5.52494V74.9816H3.63954ZM5.37969 85.892L11.9408 75.4846L10.346 74.4786L3.78478 84.8859L5.37969 85.892ZM11.1434 75.9246H14.0846V74.0386H11.1434V75.9246ZM13.2878 74.4778L6.61349 85.0361L8.20712 86.0437L14.8814 75.4854L13.2878 74.4778ZM6.57082 85.9686L13.6976 99.9204L15.3766 99.063L8.24984 85.1112L6.57082 85.9686ZM14.5371 98.5487H11.6336V100.434H14.5371V98.5487ZM12.474 99.0645L6.66698 87.6391L4.98621 88.4935L10.7932 99.9189L12.474 99.0645ZM5.02634 87.5678L3.78199 89.5663L5.38249 90.5626L6.62685 88.5648L5.02634 87.5678ZM3.63954 90.0649V99.4917H5.52494V90.0649H3.63954ZM18.6879 74.9816V74.0386H17.7452V74.9816H18.6879ZM21.3274 74.9816H22.2701V74.0386H21.3274V74.9816ZM21.9307 97.0029L21.1809 97.5742L21.1893 97.5855L21.1981 97.596L21.9307 97.0029ZM28.6804 74.9816V74.0386H27.7377V74.9816H28.6804ZM31.32 74.9816H32.2626V74.0386H31.32V74.9816ZM31.32 99.4917V100.434H32.2626V99.4917H31.32ZM30.1887 99.4917L29.3154 99.8461L29.5542 100.434H30.1887V99.4917ZM29.2084 97.0787L30.0818 96.7236L29.3784 94.9923L28.4039 96.5869L29.2084 97.0787ZM27.059 99.2657L27.5544 100.068L27.5607 100.064L27.059 99.2657ZM19.6305 94.7783V74.9816H17.7452V94.7783H19.6305ZM18.6879 75.9246H21.3274V74.0386H18.6879V75.9246ZM20.3847 74.9816V94.7783H22.2701V74.9816H20.3847ZM20.3847 94.7783C20.3847 95.8519 20.6092 96.8242 21.1809 97.5742L22.6807 96.4315C22.4479 96.1259 22.2701 95.6147 22.2701 94.7783H20.3847ZM21.1981 97.596C21.8919 98.4534 23.017 98.7372 24.2309 98.7372V96.852C23.2327 96.852 22.8243 96.6087 22.6635 96.4097L21.1981 97.596ZM24.2309 98.7372C25.6069 98.7372 26.8456 98.1974 27.9232 97.2071L26.6474 95.8189C25.8647 96.5381 25.0671 96.852 24.2309 96.852V98.7372ZM27.9232 97.2071C28.9386 96.2738 29.6231 95.2107 29.6231 94.0237H27.7377C27.7377 94.4464 27.4922 95.0426 26.6474 95.8189L27.9232 97.2071ZM29.6231 94.0237V74.9816H27.7377V94.0237H29.6231ZM28.6804 75.9246H31.32V74.0386H28.6804V75.9246ZM30.3773 74.9816V99.4917H32.2626V74.9816H30.3773ZM31.32 98.5487H30.1887V100.434H31.32V98.5487ZM31.0621 99.1366L30.0818 96.7236L28.3351 97.4331L29.3154 99.8461L31.0621 99.1366ZM28.4039 96.5869C27.9252 97.37 27.3114 97.9931 26.5574 98.4676L27.5607 100.064C28.5664 99.4317 29.3855 98.5968 30.0128 97.5697L28.4039 96.5869ZM26.5636 98.4631C25.8619 98.8971 25.0914 99.1148 24.2309 99.1148V101C25.4319 101 26.5468 100.69 27.5544 100.068L26.5636 98.4631ZM24.2309 99.1148C22.5174 99.1148 21.4073 98.7056 20.7238 98.0547C20.049 97.412 19.6305 96.3805 19.6305 94.7783H17.7452C17.7452 96.695 18.2507 98.3032 19.4235 99.4204C20.5877 100.529 22.2491 101 24.2309 101V99.1148ZM43.4013 74.9816V74.0386H42.4586V74.9816H43.4013ZM46.0408 74.9816H46.9835V74.0386H46.0408V74.9816ZM35.8597 92.7039V91.7616H34.917V92.7039H35.8597ZM38.4993 92.7039H39.4419V91.7616H38.4993V92.7039ZM43.4013 75.9246H46.0408V74.0386H43.4013V75.9246ZM45.0981 74.9816V95.1552H46.9835V74.9816H45.0981ZM45.0981 95.1552C45.0981 96.5862 44.7007 97.5179 44.0463 98.1178L45.3203 99.5075C46.4757 98.4489 46.9835 96.942 46.9835 95.1552H45.0981ZM44.0463 98.1178C43.3636 98.7439 42.3606 99.1148 40.9126 99.1148V101C42.6821 101 44.1931 100.541 45.3203 99.5075L44.0463 98.1178ZM40.9126 99.1148C39.4627 99.1148 38.4797 98.7432 37.8262 98.1268L36.5327 99.4985C37.6389 100.542 39.1446 101 40.9126 101V99.1148ZM37.8262 98.1268C37.1918 97.5292 36.8024 96.5937 36.8024 95.1552H34.917C34.917 96.9345 35.4074 98.4376 36.5327 99.4985L37.8262 98.1268ZM36.8024 95.1552V92.7039H34.917V95.1552H36.8024ZM35.8597 93.6468H38.4993V91.7616H35.8597V93.6468ZM37.5566 92.7039V95.3061H39.4419V92.7039H37.5566ZM37.5566 95.3061C37.5566 96.2738 37.7908 97.174 38.4258 97.8287C39.0659 98.4887 39.9553 98.7372 40.9126 98.7372V96.852C40.2609 96.852 39.9435 96.686 39.7793 96.5164C39.6098 96.3414 39.4419 95.9976 39.4419 95.3061H37.5566ZM40.9126 98.7372C41.8874 98.7372 42.7917 98.4932 43.4457 97.8392C44.0995 97.1853 44.344 96.2806 44.344 95.3061H42.4586C42.4586 95.9901 42.2882 96.3302 42.1124 96.5058C41.9368 96.6815 41.5968 96.852 40.9126 96.852V98.7372ZM44.344 95.3061V74.9816H42.4586V95.3061H44.344ZM55.8404 99.4917V100.434H56.7831V99.4917H55.8404ZM53.2009 99.4917H52.2581V100.434H53.2009V99.4917ZM53.2009 74.9816V74.0386H52.2581V74.9816H53.2009ZM55.8404 74.9816H56.7831V74.0386H55.8404V74.9816ZM55.8404 98.5487H53.2009V100.434H55.8404V98.5487ZM54.1436 99.4917V74.9816H52.2581V99.4917H54.1436ZM53.2009 75.9246H55.8404V74.0386H53.2009V75.9246ZM54.8978 74.9816V99.4917H56.7831V74.9816H54.8978ZM66.0038 99.4917V100.434H66.9465V99.4917H66.0038ZM63.3643 99.4917H62.4215V100.434H63.3643V99.4917ZM63.3643 74.9816V74.0386H62.4215V74.9816H63.3643ZM64.4955 74.9816L65.3732 74.6377L65.1386 74.0386H64.4955V74.9816ZM65.589 77.7723L64.7113 78.1161L65.627 80.4526L66.4761 78.0906L65.589 77.7723ZM73.9224 81.7687V82.7117H74.8651V81.7687H73.9224ZM71.396 81.7687H70.4533V82.7117H71.396V81.7687ZM67.0219 78.1116L66.2631 77.5523L66.2581 77.559L66.2534 77.565L67.0219 78.1116ZM66.0038 98.5487H63.3643V100.434H66.0038V98.5487ZM64.307 99.4917V74.9816H62.4215V99.4917H64.307ZM63.3643 75.9246H64.4955V74.0386H63.3643V75.9246ZM63.6178 75.3255L64.7113 78.1161L66.4667 77.4276L65.3732 74.6377L63.6178 75.3255ZM66.4761 78.0906C66.8445 77.0665 67.2922 76.3856 67.7737 75.9651C68.2366 75.5612 68.7747 75.3585 69.4352 75.3585V73.4733C68.336 73.4733 67.3532 73.8299 66.5342 74.5446C65.7335 75.2429 65.138 76.2399 64.702 77.4532L66.4761 78.0906ZM69.4352 75.3585C70.7632 75.3585 71.5922 75.7174 72.1053 76.2782C72.6328 76.8541 72.9797 77.8098 72.9797 79.3181H74.8651C74.8651 77.5583 74.4642 76.0627 73.496 75.0049C72.5133 73.9312 71.0988 73.4733 69.4352 73.4733V75.3585ZM72.9797 79.3181V81.7687H74.8651V79.3181H72.9797ZM73.9224 80.8265H71.396V82.7117H73.9224V80.8265ZM72.3387 81.7687V79.1672H70.4533V81.7687H72.3387ZM72.3387 79.1672C72.3387 78.2302 72.147 77.3511 71.6017 76.6971C71.029 76.0102 70.2085 75.7354 69.3221 75.7354V77.6214C69.8183 77.6214 70.0348 77.7617 70.1533 77.9044C70.2994 78.0793 70.4533 78.445 70.4533 79.1672H72.3387ZM69.3221 75.7354C68.0785 75.7354 67.0635 76.4659 66.2631 77.5523L67.7808 78.6702C68.3881 77.8466 68.9064 77.6214 69.3221 77.6214V75.7354ZM66.2534 77.565C65.4149 78.7453 65.0611 80.3527 65.0611 82.259H66.9465C66.9465 80.5457 67.2714 79.3879 67.7904 78.6574L66.2534 77.565ZM65.0611 82.259V99.4917H66.9465V82.259H65.0611ZM90.1515 99.4917V100.434H91.0945V99.4917H90.1515ZM89.0201 99.4917L88.1469 99.8461L88.3857 100.434H89.0201V99.4917ZM88.0396 97.0787L88.9135 96.7236L88.192 94.9472L87.2257 96.6034L88.0396 97.0787ZM85.9659 99.2657L86.4614 100.068L86.4697 100.062L86.4779 100.057L85.9659 99.2657ZM87.5118 85.7283V86.6713H88.4548V85.7283H87.5118ZM80.7247 81.7687V82.7117H81.6669V81.7687H80.7247ZM78.0849 81.7687H77.1419V82.7117H78.0849V81.7687ZM79.5557 75.8112L80.1954 76.5042L80.1961 76.5034L79.5557 75.8112ZM88.6057 75.8112L87.9652 76.5034L87.9743 76.5117L87.9833 76.5192L88.6057 75.8112ZM87.5118 87.9904H88.4548V87.0482H87.5118V87.9904ZM86.0793 96.5884L86.7054 97.2927L86.7107 97.2882L86.7159 97.2829L86.0793 96.5884ZM87.5118 94.1371L88.4525 94.1957L88.4548 94.1664V94.1371H87.5118ZM90.1515 98.5487H89.0201V100.434H90.1515V98.5487ZM89.894 99.1366L88.9135 96.7236L87.1664 97.4331L88.1469 99.8461L89.894 99.1366ZM87.2257 96.6034C86.77 97.3843 86.1806 98.0037 85.4539 98.4736L86.4779 100.057C87.4607 99.4211 88.2543 98.5825 88.8542 97.5532L87.2257 96.6034ZM85.4704 98.4631C84.7691 98.8971 83.9981 99.1148 83.1377 99.1148V101C84.339 101 85.4539 100.69 86.4614 100.068L85.4704 98.4631ZM83.1377 99.1148C81.4664 99.1148 80.3876 98.7079 79.7224 98.0615C79.0624 97.4195 78.6503 96.3857 78.6503 94.7783H76.765C76.765 96.6898 77.2583 98.2957 78.4085 99.4136C79.5535 100.526 81.1894 101 83.1377 101V99.1148ZM78.6503 94.7783V91.0071H76.765V94.7783H78.6503ZM78.6503 91.0071C78.6503 89.3997 79.0624 88.3658 79.7224 87.7239C80.3876 87.0775 81.4664 86.6713 83.1377 86.6713V84.7853C81.1894 84.7853 79.5535 85.2591 78.4085 86.3725C77.2583 87.4904 76.765 89.0956 76.765 91.0071H78.6503ZM83.1377 86.6713H87.5118V84.7853H83.1377V86.6713ZM88.4548 85.7283V79.5441H86.5695V85.7283H88.4548ZM88.4548 79.5441C88.4548 78.4209 88.0854 77.4359 87.2633 76.7212L86.026 78.1439C86.3608 78.4345 86.5695 78.8579 86.5695 79.5441H88.4548ZM87.2633 76.7212C86.4479 76.0124 85.3337 75.7354 84.0807 75.7354V77.6214C85.0897 77.6214 85.6851 77.8473 86.026 78.1439L87.2633 76.7212ZM84.0807 75.7354C82.8501 75.7354 81.751 75.9952 80.9514 76.6784C80.1233 77.3849 79.7817 78.4014 79.7817 79.5441H81.6669C81.6669 78.7768 81.8846 78.3601 82.1759 78.1116C82.495 77.8391 83.0739 77.6214 84.0807 77.6214V75.7354ZM79.7817 79.5441V81.7687H81.6669V79.5441H79.7817ZM80.7247 80.8265H78.0849V82.7117H80.7247V80.8265ZM79.0279 81.7687V79.695H77.1419V81.7687H79.0279ZM79.0279 79.695C79.0279 78.2002 79.4558 77.1859 80.1954 76.5042L78.916 75.1182C77.6945 76.2467 77.1419 77.8211 77.1419 79.695H79.0279ZM80.1961 76.5034C80.9604 75.7954 82.197 75.3585 84.0807 75.3585V73.4733C81.9417 73.4733 80.1616 73.9665 78.9153 75.119L80.1961 76.5034ZM84.0807 75.3585C85.9636 75.3585 87.2002 75.7954 87.9652 76.5034L89.2453 75.119C87.9998 73.9665 86.2197 73.4733 84.0807 73.4733V75.3585ZM87.9833 76.5192C88.7648 77.2054 89.2085 78.2152 89.2085 79.695H91.0945C91.0945 77.8068 90.5074 76.2264 89.2273 75.1025L87.9833 76.5192ZM89.2085 79.695V99.4917H91.0945V79.695H89.2085ZM87.5118 87.0482H83.1377V88.9334H87.5118V87.0482ZM83.1377 87.0482C81.9635 87.0482 80.8658 87.3388 80.2006 88.2112L81.7007 89.3539C81.8403 89.1707 82.2007 88.9334 83.1377 88.9334V87.0482ZM80.2006 88.2112C79.6293 88.962 79.4048 89.9335 79.4048 91.0071H81.29C81.29 90.1707 81.4679 89.6594 81.7007 89.3539L80.2006 88.2112ZM79.4048 91.0071V94.7783H81.29V91.0071H79.4048ZM79.4048 94.7783C79.4048 95.8519 79.6293 96.8242 80.2006 97.5742L81.7007 96.4315C81.4679 96.1259 81.29 95.6147 81.29 94.7783H79.4048ZM80.2006 97.5742C80.8658 98.4474 81.9635 98.7372 83.1377 98.7372V96.852C82.2007 96.852 81.8403 96.6147 81.7007 96.4315L80.2006 97.5742ZM83.1377 98.7372C84.4583 98.7372 85.6551 98.2266 86.7054 97.2927L85.4531 95.8834C84.6933 96.5584 83.929 96.852 83.1377 96.852V98.7372ZM86.7159 97.2829C87.7092 96.3729 88.3812 95.3444 88.4525 94.1957L86.571 94.0786C86.5425 94.5388 86.2595 95.1439 85.4418 95.8932L86.7159 97.2829ZM88.4548 94.1371V87.9904H86.5695V94.1371H88.4548Z" fill="#A3A3A3"/>
</g>
<defs>
<clipPath id="clip0_1413_4155">
<rect width="90.09" height="100" fill="white" transform="translate(0.955017 0.553223)"/>
</clipPath>
</defs>
</svg>
