<svg width="100" height="31" viewBox="0 0 100 31" fill="none" xmlns="http://www.w3.org/2000/svg">
<path fill-rule="evenodd" clip-rule="evenodd" d="M3.97616 29.9254H5.0225V28.8791V18.7148L5.26505 18.3252L10.87 29.3532L11.1609 29.9254H11.8028H15.0255H16.7349L15.9573 28.4031L8.31825 13.4482L15.4077 2.23325L16.4225 0.627812H14.5233H11.2587H10.6814L10.3736 1.11614L5.0225 9.60405V1.67416V0.627812H3.97616H1.04634H0V1.67416V28.8791V29.9254H1.04634H3.97616ZM3.97616 18.4156L4.7111 17.2353L5.35727 16.1974L5.91129 17.2874L11.8028 28.8791H13.8506H15.0255L14.491 27.8327L7.11519 13.3932L13.8618 2.7205L14.5233 1.67416H13.2854H11.2587L5.0225 11.5661L3.97616 13.2258V11.2638V2.7205V1.67416H2.92981H2.09269H1.04634V2.7205V27.8327V28.8791H2.09269H2.92981H3.97616V27.8327V18.4156ZM19.6327 0.627812H18.5863V1.67416V23.6474C18.5863 25.7752 19.1475 27.5599 20.4493 28.7997C21.7414 30.0304 23.5855 30.5532 25.7852 30.5532C27.1181 30.5532 28.3557 30.209 29.4741 29.5182L29.4811 29.5138C30.0484 29.1572 30.5622 28.7425 31.0217 28.2713L31.4286 29.2729L31.6938 29.9254H32.3981H33.6537H34.7V28.8791V1.67416V0.627812H33.6537H30.7239H29.6776V1.67416V22.8103C29.6776 23.2789 29.405 23.9405 28.4674 24.8022C27.5986 25.6005 26.7133 25.9493 25.7852 25.9493C24.695 25.9493 24.2387 25.6876 24.0542 25.469C23.8009 25.1286 23.6088 24.5636 23.6088 23.6474V1.67416V0.627812H22.5624H19.6327ZM31.3099 26.2004C31.0915 26.5578 30.8502 26.8904 30.5859 27.1983C30.1073 27.7559 29.5534 28.2325 28.9242 28.628C27.9756 29.2139 26.9293 29.5069 25.7852 29.5069C21.6835 29.5069 19.6327 27.5537 19.6327 23.6474V2.7205V1.67416H20.679H21.5161H22.5624V2.7205V23.6474C22.5624 24.7076 22.7856 25.5308 23.2321 26.1167C23.7065 26.7027 24.5574 26.9957 25.7852 26.9957C27.0129 26.9957 28.1429 26.5213 29.1753 25.5726C30.2078 24.624 30.7239 23.7032 30.7239 22.8103V2.7205V1.67416H31.7703H32.6073H33.6537V2.7205V27.8327V28.8791H32.6073H32.3981L31.7848 27.3696L31.3099 26.2004ZM47.0632 0.627812H46.0169V1.67416V24.2333C46.0169 24.9928 45.8277 25.3703 45.6327 25.5652C45.4378 25.7601 45.0604 25.9493 44.3009 25.9493C43.5776 25.9493 43.2254 25.7647 43.043 25.5766C42.8549 25.3827 42.6686 25.0007 42.6686 24.2333V21.3454V20.2991H41.6222H38.6925H37.6461V21.3454V24.0659C37.6461 26.0404 38.1905 27.7094 39.4395 28.887C40.6673 30.0447 42.3386 30.5532 44.3009 30.5532C46.265 30.5532 47.9421 30.044 49.1932 28.8971C50.4758 27.7214 51.0393 26.0489 51.0393 24.0659V1.67416V0.627812H49.993H47.0632ZM60.87 29.9254H61.9164V28.8791V1.67416V0.627812H60.87H57.9403H56.8939V1.67416V28.8791V29.9254H57.9403H60.87ZM72.1509 29.9254H73.1973V28.8791V9.75193C73.1973 7.85531 73.5559 6.57222 74.1289 5.76121C74.8005 4.85266 75.374 4.6039 75.8341 4.6039C76.3849 4.6039 76.6251 4.76005 76.7567 4.91802C76.9188 5.11252 77.0897 5.51869 77.0897 6.31992V9.20784V10.2542H78.136H80.9402H81.9866V9.20784V6.48734C81.9866 4.53416 81.5416 2.8741 80.4669 1.70009C79.3762 0.508547 77.806 0 75.9596 0C74.7396 0 73.6487 0.395923 72.7395 1.18918C72.3989 1.48639 72.0917 1.83228 71.8152 2.22163L71.4509 1.29238L71.1905 0.627812H70.4768H69.2212H68.1749V1.67416V28.8791V29.9254H69.2212H72.1509ZM75.8341 3.55756C74.9133 3.55756 74.0622 4.08773 73.281 5.14802C72.5276 6.20832 72.1509 7.74293 72.1509 9.75193V27.8327V28.8791H71.1046H70.2675H69.2212V27.8327V2.7205V1.67416H70.2675H70.4768L71.1422 3.37187L71.6906 4.77133C71.869 4.27513 72.0685 3.82851 72.2893 3.43143C73.1732 1.84139 74.3967 1.04634 75.9596 1.04634C79.28 1.04634 80.9402 2.86001 80.9402 6.48734V8.1615V9.20784H79.8939H79.1824H78.136V8.1615V6.31992C78.136 4.47835 77.3688 3.55756 75.8341 3.55756ZM98.9537 29.9254H100V28.8791V6.90588C100 4.81478 99.352 3.06456 97.9382 1.81762C96.5555 0.544694 94.5836 0 92.2152 0C89.8412 0 87.8655 0.547344 86.4823 1.82682C85.1265 3.07868 84.5141 4.82647 84.5141 6.90588V9.20784V10.2542H85.5605H88.4902H89.5366V9.20784V6.73845C89.5366 5.88644 89.7783 5.42404 90.101 5.1485C90.4553 4.84595 91.098 4.6039 92.2152 4.6039C93.3356 4.6039 93.9963 4.85515 94.3747 5.18423C94.746 5.50709 94.9776 5.97646 94.9776 6.73845V12.5561H91.1689C89.0059 12.5561 87.1901 13.0816 85.9194 14.3171C84.643 15.558 84.0956 17.3399 84.0956 19.462V23.6474C84.0956 25.7694 84.643 27.5514 85.9194 28.7922C87.1901 30.0277 89.0059 30.5532 91.1689 30.5532C92.5018 30.5532 93.7393 30.209 94.8577 29.5182L94.8672 29.5124L94.8764 29.5065C95.4134 29.159 95.8995 28.7569 96.3341 28.3017L96.7287 29.2729L96.9938 29.9254H97.6981H98.9537ZM92.2152 1.04634C94.4474 1.04634 96.1216 1.56256 97.2377 2.59494C98.3817 3.59942 98.9537 5.03638 98.9537 6.90588V27.8327V28.8791H97.9073H97.6981L97.0908 27.3841L96.61 26.2004C96.396 26.5671 96.1578 26.9078 95.8956 27.2224C95.4395 27.7696 94.9103 28.2382 94.3079 28.628C93.3593 29.2139 92.3129 29.5069 91.1689 29.5069C87.1509 29.5069 85.1419 27.5537 85.1419 23.6474V19.462C85.1419 15.5557 87.1509 13.6025 91.1689 13.6025H94.9776H96.0239V12.5561V6.73845C96.0239 5.73397 95.7031 4.9527 95.0613 4.39465C94.4195 3.83658 93.4709 3.55756 92.2152 3.55756C89.7319 3.55756 88.4902 4.61786 88.4902 6.73845V8.1615V9.20784H87.4439H86.6068H85.5605V8.1615V6.90588C85.5605 5.03638 86.1046 3.59942 87.1929 2.59494C88.3089 1.56256 89.983 1.04634 92.2152 1.04634ZM91.1689 17.16H94.9776V22.8988C94.9361 23.4047 94.6181 24.0659 93.7323 24.8795C92.8914 25.625 92.045 25.9493 91.1689 25.9493C90.1289 25.9493 89.7284 25.6856 89.5736 25.4826C89.3154 25.1435 89.118 24.576 89.118 23.6474V19.462C89.118 18.5335 89.3154 17.9658 89.5736 17.6267C89.7284 17.4237 90.1289 17.16 91.1689 17.16ZM91.1689 16.1137H94.9776H96.0239V17.16V22.9358C95.9681 23.8287 95.4379 24.7356 94.4335 25.6563C93.429 26.5493 92.3408 26.9957 91.1689 26.9957C89.997 26.9957 89.1878 26.7027 88.7414 26.1167C88.2949 25.5308 88.0717 24.7076 88.0717 23.6474V19.462C88.0717 18.4017 88.2949 17.5786 88.7414 16.9926C89.1878 16.4067 89.997 16.1137 91.1689 16.1137ZM47.0632 1.67416H48.1095H48.9466H49.993V2.7205V24.0659C49.993 25.8517 49.4907 27.2049 48.4862 28.1257C47.4817 29.0465 46.0866 29.5069 44.3009 29.5069C42.5151 29.5069 41.134 29.0465 40.1573 28.1257C39.1808 27.2049 38.6925 25.8517 38.6925 24.0659V22.3917V21.3454H39.7388H40.5759H41.6222V22.3917V24.2333C41.6222 26.0749 42.5151 26.9957 44.3009 26.9957C46.1424 26.9957 47.0632 26.0749 47.0632 24.2333V2.7205V1.67416ZM60.87 28.8791H59.8237H58.9866H57.9403V27.8327V2.7205V1.67416H58.9866H59.8237H60.87V2.7205V27.8327V28.8791Z" fill="#757575"/>
</svg>
